<svg width="40" height="40" viewBox="0 0 40 40" fill="none" xmlns="http://www.w3.org/2000/svg">
<rect width="40" height="40" rx="8" fill="#353535"/>
<path d="M16.8019 16.8018C14.4333 17.3455 12.6667 19.4665 12.6667 22C12.6667 24.9455 15.0546 27.3333 18.0001 27.3333C20.5336 27.3333 22.6546 25.5668 23.1983 23.1982C23.2867 22.8131 23.3334 22.412 23.3334 22C23.3334 19.0545 20.9456 16.6667 18.0001 16.6667C17.5881 16.6667 17.187 16.7134 16.8019 16.8018Z" fill="white"/>
<path d="M17.363 15.3634C17.5727 15.3435 17.7852 15.3333 18.0001 15.3333C21.682 15.3333 24.6667 18.3181 24.6667 22C24.6667 22.2149 24.6566 22.4274 24.6367 22.6371C26.2474 21.7193 27.3334 19.9865 27.3334 18C27.3334 15.0545 24.9456 12.6667 22.0001 12.6667C20.0136 12.6667 18.2808 13.7527 17.363 15.3634Z" fill="white"/>
</svg>
