<svg width="18" height="18" viewBox="0 0 18 18" fill="none" xmlns="http://www.w3.org/2000/svg">
<path d="M1.39668 14.0963C1.43497 13.7517 1.45411 13.5794 1.50624 13.4184C1.55249 13.2755 1.61784 13.1396 1.70051 13.0142C1.79369 12.8729 1.91627 12.7503 2.16142 12.5052L13.1667 1.49992C14.0871 0.579451 15.5795 0.579452 16.5 1.49993C17.4205 2.4204 17.4205 3.91279 16.5 4.83326L5.49475 15.8385C5.2496 16.0836 5.12703 16.2062 4.98572 16.2994C4.86035 16.3821 4.72439 16.4474 4.58152 16.4937C4.42048 16.5458 4.2482 16.5649 3.90362 16.6032L1.08331 16.9166L1.39668 14.0963Z" stroke="#4B4B4B" stroke-width="1.5" stroke-linecap="round" stroke-linejoin="round"/>
</svg>
