<svg width="621" height="320" viewBox="0 0 621 320" fill="none" xmlns="http://www.w3.org/2000/svg">
<path d="M5.96179 4.27273V13H4.90497V5.38068H4.85384L2.72315 6.79545V5.72159L4.90497 4.27273H5.96179ZM9.44435 11.8068L9.37617 12.267C9.32788 12.5909 9.25401 12.9375 9.15458 13.3068C9.05799 13.6761 8.95714 14.0241 8.85203 14.3509C8.74691 14.6776 8.66026 14.9375 8.59208 15.1307H7.82504C7.86197 14.9489 7.91026 14.7088 7.96992 14.4105C8.02958 14.1122 8.08924 13.7784 8.1489 13.4091C8.2114 13.0426 8.26254 12.6676 8.30231 12.2841L8.35345 11.8068H9.44435ZM11.0572 11.2102V10.3409L14.8925 4.27273H15.5232V5.61932H15.097L12.1993 10.2045V10.2727H17.3641V11.2102H11.0572ZM15.1652 13V10.946V10.5412V4.27273H16.1709V13H15.1652ZM21.7788 13.1193C21.1368 13.1193 20.5899 12.9446 20.1382 12.5952C19.6865 12.2429 19.3413 11.733 19.1027 11.0653C18.864 10.3949 18.7447 9.58523 18.7447 8.63636C18.7447 7.69318 18.864 6.88778 19.1027 6.22017C19.3441 5.54972 19.6907 5.03835 20.1424 4.68608C20.597 4.33097 21.1424 4.15341 21.7788 4.15341C22.4152 4.15341 22.9592 4.33097 23.4109 4.68608C23.8654 5.03835 24.212 5.54972 24.4507 6.22017C24.6922 6.88778 24.8129 7.69318 24.8129 8.63636C24.8129 9.58523 24.6936 10.3949 24.4549 11.0653C24.2163 11.733 23.8711 12.2429 23.4194 12.5952C22.9677 12.9446 22.4208 13.1193 21.7788 13.1193ZM21.7788 12.1818C22.4152 12.1818 22.9095 11.875 23.2618 11.2614C23.614 10.6477 23.7902 9.77273 23.7902 8.63636C23.7902 7.88068 23.7092 7.23722 23.5473 6.70597C23.3882 6.17472 23.1581 5.76989 22.8569 5.49148C22.5586 5.21307 22.1993 5.07386 21.7788 5.07386C21.1481 5.07386 20.6552 5.38494 20.3001 6.0071C19.945 6.62642 19.7674 7.50284 19.7674 8.63636C19.7674 9.39205 19.847 10.0341 20.0061 10.5625C20.1652 11.0909 20.3939 11.4929 20.6922 11.7685C20.9933 12.044 21.3555 12.1818 21.7788 12.1818ZM29.25 13.1193C28.608 13.1193 28.0611 12.9446 27.6094 12.5952C27.1577 12.2429 26.8125 11.733 26.5739 11.0653C26.3352 10.3949 26.2159 9.58523 26.2159 8.63636C26.2159 7.69318 26.3352 6.88778 26.5739 6.22017C26.8153 5.54972 27.1619 5.03835 27.6136 4.68608C28.0682 4.33097 28.6136 4.15341 29.25 4.15341C29.8864 4.15341 30.4304 4.33097 30.8821 4.68608C31.3366 5.03835 31.6832 5.54972 31.9219 6.22017C32.1634 6.88778 32.2841 7.69318 32.2841 8.63636C32.2841 9.58523 32.1648 10.3949 31.9261 11.0653C31.6875 11.733 31.3423 12.2429 30.8906 12.5952C30.4389 12.9446 29.892 13.1193 29.25 13.1193ZM29.25 12.1818C29.8864 12.1818 30.3807 11.875 30.733 11.2614C31.0852 10.6477 31.2614 9.77273 31.2614 8.63636C31.2614 7.88068 31.1804 7.23722 31.0185 6.70597C30.8594 6.17472 30.6293 5.76989 30.3281 5.49148C30.0298 5.21307 29.6705 5.07386 29.25 5.07386C28.6193 5.07386 28.1264 5.38494 27.7713 6.0071C27.4162 6.62642 27.2386 7.50284 27.2386 8.63636C27.2386 9.39205 27.3182 10.0341 27.4773 10.5625C27.6364 11.0909 27.8651 11.4929 28.1634 11.7685C28.4645 12.044 28.8267 12.1818 29.25 12.1818Z" fill="#4B4B4B"/>
<line x1="45" y1="8.5" x2="621" y2="8.50005" stroke="#F2F2F2"/>
<path d="M6.39538 43.1299V51.8572H5.33857V44.2379H5.28743L3.15675 45.6526V44.5788L5.33857 43.1299H6.39538ZM9.87795 50.664L9.80977 51.1242C9.76147 51.4481 9.68761 51.7947 9.58818 52.164C9.49158 52.5333 9.39073 52.8813 9.28562 53.208C9.18051 53.5347 9.09386 53.7947 9.02568 53.9879H8.25863C8.29556 53.806 8.34386 53.566 8.40352 53.2677C8.46318 52.9694 8.52283 52.6356 8.58249 52.2663C8.64499 51.8998 8.69613 51.5248 8.7359 51.1413L8.78704 50.664H9.87795ZM11.6954 51.8572V51.0901L14.5761 47.9367C14.9141 47.5674 15.1925 47.2464 15.4113 46.9737C15.63 46.6981 15.792 46.4396 15.8971 46.1981C16.005 45.9538 16.059 45.6981 16.059 45.431C16.059 45.1242 15.9852 44.8586 15.8374 44.6342C15.6925 44.4097 15.4937 44.2364 15.2408 44.1143C14.988 43.9921 14.7039 43.931 14.3886 43.931C14.0533 43.931 13.7607 44.0006 13.5107 44.1398C13.2636 44.2762 13.0718 44.468 12.9354 44.7151C12.8019 44.9623 12.7352 45.2521 12.7352 45.5845H11.7295C11.7295 45.0731 11.8474 44.6242 12.0832 44.2379C12.319 43.8515 12.64 43.5504 13.0462 43.3345C13.4553 43.1185 13.9141 43.0106 14.4227 43.0106C14.934 43.0106 15.3871 43.1185 15.782 43.3345C16.1769 43.5504 16.4866 43.8416 16.711 44.208C16.9354 44.5745 17.0477 44.9822 17.0477 45.431C17.0477 45.7521 16.9894 46.066 16.8729 46.3728C16.7593 46.6768 16.5604 47.0163 16.2764 47.3913C15.9951 47.7634 15.6045 48.218 15.1045 48.7549L13.1442 50.8515V50.9197H17.2011V51.8572H11.6954ZM21.7788 51.9765C21.1368 51.9765 20.5899 51.8018 20.1382 51.4523C19.6865 51.1001 19.3413 50.5901 19.1027 49.9225C18.864 49.2521 18.7447 48.4424 18.7447 47.4935C18.7447 46.5504 18.864 45.745 19.1027 45.0773C19.3441 44.4069 19.6907 43.8955 20.1424 43.5433C20.597 43.1881 21.1424 43.0106 21.7788 43.0106C22.4152 43.0106 22.9592 43.1881 23.4109 43.5433C23.8654 43.8955 24.212 44.4069 24.4507 45.0773C24.6922 45.745 24.8129 46.5504 24.8129 47.4935C24.8129 48.4424 24.6936 49.2521 24.4549 49.9225C24.2163 50.5901 23.8711 51.1001 23.4194 51.4523C22.9677 51.8018 22.4208 51.9765 21.7788 51.9765ZM21.7788 51.039C22.4152 51.039 22.9095 50.7322 23.2618 50.1185C23.614 49.5049 23.7902 48.6299 23.7902 47.4935C23.7902 46.7379 23.7092 46.0944 23.5473 45.5631C23.3882 45.0319 23.1581 44.6271 22.8569 44.3487C22.5586 44.0702 22.1993 43.931 21.7788 43.931C21.1481 43.931 20.6552 44.2421 20.3001 44.8643C19.945 45.4836 19.7674 46.36 19.7674 47.4935C19.7674 48.2492 19.847 48.8913 20.0061 49.4197C20.1652 49.9481 20.3939 50.3501 20.6922 50.6256C20.9933 50.9012 21.3555 51.039 21.7788 51.039ZM29.25 51.9765C28.608 51.9765 28.0611 51.8018 27.6094 51.4523C27.1577 51.1001 26.8125 50.5901 26.5739 49.9225C26.3352 49.2521 26.2159 48.4424 26.2159 47.4935C26.2159 46.5504 26.3352 45.745 26.5739 45.0773C26.8153 44.4069 27.1619 43.8955 27.6136 43.5433C28.0682 43.1881 28.6136 43.0106 29.25 43.0106C29.8864 43.0106 30.4304 43.1881 30.8821 43.5433C31.3366 43.8955 31.6832 44.4069 31.9219 45.0773C32.1634 45.745 32.2841 46.5504 32.2841 47.4935C32.2841 48.4424 32.1648 49.2521 31.9261 49.9225C31.6875 50.5901 31.3423 51.1001 30.8906 51.4523C30.4389 51.8018 29.892 51.9765 29.25 51.9765ZM29.25 51.039C29.8864 51.039 30.3807 50.7322 30.733 50.1185C31.0852 49.5049 31.2614 48.6299 31.2614 47.4935C31.2614 46.7379 31.1804 46.0944 31.0185 45.5631C30.8594 45.0319 30.6293 44.6271 30.3281 44.3487C30.0298 44.0702 29.6705 43.931 29.25 43.931C28.6193 43.931 28.1264 44.2421 27.7713 44.8643C27.4162 45.4836 27.2386 46.36 27.2386 47.4935C27.2386 48.2492 27.3182 48.8913 27.4773 49.4197C27.6364 49.9481 27.8651 50.3501 28.1634 50.6256C28.4645 50.9012 28.8267 51.039 29.25 51.039Z" fill="#4B4B4B"/>
<line x1="45" y1="47.3572" x2="621" y2="47.3572" stroke="#F2F2F2"/>
<path d="M6.4657 81.987V90.7142H5.40888V83.0949H5.35774L3.22706 84.5097V83.4358L5.40888 81.987H6.4657ZM9.94826 89.5211L9.88008 89.9813C9.83178 90.3051 9.75792 90.6517 9.65849 91.0211C9.5619 91.3904 9.46104 91.7384 9.35593 92.0651C9.25082 92.3918 9.16417 92.6517 9.09599 92.8449H8.32894C8.36587 92.6631 8.41417 92.423 8.47383 92.1247C8.53349 91.8264 8.59315 91.4926 8.65281 91.1233C8.71531 90.7568 8.76644 90.3818 8.80622 89.9983L8.85735 89.5211H9.94826ZM14.3076 90.8336C13.6656 90.8336 13.1187 90.6588 12.667 90.3094C12.2153 89.9571 11.8701 89.4472 11.6315 88.7796C11.3928 88.1091 11.2735 87.2995 11.2735 86.3506C11.2735 85.4074 11.3928 84.602 11.6315 83.9344C11.8729 83.2639 12.2195 82.7526 12.6712 82.4003C13.1258 82.0452 13.6712 81.8676 14.3076 81.8676C14.944 81.8676 15.488 82.0452 15.9397 82.4003C16.3942 82.7526 16.7408 83.2639 16.9795 83.9344C17.221 84.602 17.3417 85.4074 17.3417 86.3506C17.3417 87.2995 17.2224 88.1091 16.9837 88.7796C16.7451 89.4472 16.3999 89.9571 15.9482 90.3094C15.4965 90.6588 14.9496 90.8336 14.3076 90.8336ZM14.3076 89.8961C14.944 89.8961 15.4383 89.5892 15.7906 88.9756C16.1428 88.362 16.319 87.487 16.319 86.3506C16.319 85.5949 16.238 84.9514 16.0761 84.4202C15.917 83.8889 15.6869 83.4841 15.3857 83.2057C15.0874 82.9273 14.7281 82.7881 14.3076 82.7881C13.6769 82.7881 13.184 83.0992 12.8289 83.7213C12.4738 84.3407 12.2962 85.2171 12.2962 86.3506C12.2962 87.1063 12.3758 87.7483 12.5349 88.2767C12.694 88.8051 12.9227 89.2071 13.221 89.4827C13.5221 89.7583 13.8843 89.8961 14.3076 89.8961ZM21.7788 90.8336C21.1368 90.8336 20.5899 90.6588 20.1382 90.3094C19.6865 89.9571 19.3413 89.4472 19.1027 88.7796C18.864 88.1091 18.7447 87.2995 18.7447 86.3506C18.7447 85.4074 18.864 84.602 19.1027 83.9344C19.3441 83.2639 19.6907 82.7526 20.1424 82.4003C20.597 82.0452 21.1424 81.8676 21.7788 81.8676C22.4152 81.8676 22.9592 82.0452 23.4109 82.4003C23.8654 82.7526 24.212 83.2639 24.4507 83.9344C24.6922 84.602 24.8129 85.4074 24.8129 86.3506C24.8129 87.2995 24.6936 88.1091 24.4549 88.7796C24.2163 89.4472 23.8711 89.9571 23.4194 90.3094C22.9677 90.6588 22.4208 90.8336 21.7788 90.8336ZM21.7788 89.8961C22.4152 89.8961 22.9095 89.5892 23.2618 88.9756C23.614 88.362 23.7902 87.487 23.7902 86.3506C23.7902 85.5949 23.7092 84.9514 23.5473 84.4202C23.3882 83.8889 23.1581 83.4841 22.8569 83.2057C22.5586 82.9273 22.1993 82.7881 21.7788 82.7881C21.1481 82.7881 20.6552 83.0992 20.3001 83.7213C19.945 84.3407 19.7674 85.2171 19.7674 86.3506C19.7674 87.1063 19.847 87.7483 20.0061 88.2767C20.1652 88.8051 20.3939 89.2071 20.6922 89.4827C20.9933 89.7583 21.3555 89.8961 21.7788 89.8961ZM29.25 90.8336C28.608 90.8336 28.0611 90.6588 27.6094 90.3094C27.1577 89.9571 26.8125 89.4472 26.5739 88.7796C26.3352 88.1091 26.2159 87.2995 26.2159 86.3506C26.2159 85.4074 26.3352 84.602 26.5739 83.9344C26.8153 83.2639 27.1619 82.7526 27.6136 82.4003C28.0682 82.0452 28.6136 81.8676 29.25 81.8676C29.8864 81.8676 30.4304 82.0452 30.8821 82.4003C31.3366 82.7526 31.6832 83.2639 31.9219 83.9344C32.1634 84.602 32.2841 85.4074 32.2841 86.3506C32.2841 87.2995 32.1648 88.1091 31.9261 88.7796C31.6875 89.4472 31.3423 89.9571 30.8906 90.3094C30.4389 90.6588 29.892 90.8336 29.25 90.8336ZM29.25 89.8961C29.8864 89.8961 30.3807 89.5892 30.733 88.9756C31.0852 88.362 31.2614 87.487 31.2614 86.3506C31.2614 85.5949 31.1804 84.9514 31.0185 84.4202C30.8594 83.8889 30.6293 83.4841 30.3281 83.2057C30.0298 82.9273 29.6705 82.7881 29.25 82.7881C28.6193 82.7881 28.1264 83.0992 27.7713 83.7213C27.4162 84.3407 27.2386 85.2171 27.2386 86.3506C27.2386 87.1063 27.3182 87.7483 27.4773 88.2767C27.6364 88.8051 27.8651 89.2071 28.1634 89.4827C28.4645 89.7583 28.8267 89.8961 29.25 89.8961Z" fill="#4B4B4B"/>
<line x1="45" y1="86.2142" x2="621" y2="86.2143" stroke="#F2F2F2"/>
<path d="M14.3619 129.691C13.7767 129.691 13.2597 129.587 12.8108 129.38C12.3648 129.169 12.0168 128.881 11.7668 128.515C11.5168 128.145 11.3932 127.725 11.396 127.253C11.3932 126.884 11.4656 126.543 11.6134 126.231C11.7611 125.915 11.9628 125.652 12.2185 125.442C12.477 125.229 12.7653 125.094 13.0835 125.037V124.986C12.6659 124.878 12.3335 124.644 12.0864 124.283C11.8392 123.919 11.717 123.506 11.7199 123.043C11.717 122.6 11.8293 122.204 12.0565 121.854C12.2838 121.505 12.5963 121.229 12.994 121.027C13.3946 120.826 13.8506 120.725 14.3619 120.725C14.8676 120.725 15.3193 120.826 15.717 121.027C16.1148 121.229 16.4273 121.505 16.6545 121.854C16.8847 122.204 17.0011 122.6 17.004 123.043C17.0011 123.506 16.8747 123.919 16.6247 124.283C16.3776 124.644 16.0494 124.878 15.6403 124.986V125.037C15.9557 125.094 16.2398 125.229 16.4926 125.442C16.7455 125.652 16.9472 125.915 17.0977 126.231C17.2483 126.543 17.325 126.884 17.3278 127.253C17.325 127.725 17.1972 128.145 16.9443 128.515C16.6943 128.881 16.3463 129.169 15.9003 129.38C15.4571 129.587 14.9443 129.691 14.3619 129.691ZM14.3619 128.753C14.7568 128.753 15.0977 128.689 15.3847 128.561C15.6716 128.434 15.8932 128.253 16.0494 128.02C16.2057 127.787 16.2852 127.515 16.2881 127.202C16.2852 126.873 16.2 126.581 16.0324 126.329C15.8648 126.076 15.6361 125.877 15.3463 125.732C15.0594 125.587 14.7313 125.515 14.3619 125.515C13.9898 125.515 13.6574 125.587 13.3648 125.732C13.075 125.877 12.8463 126.076 12.6787 126.329C12.5139 126.581 12.433 126.873 12.4358 127.202C12.433 127.515 12.5082 127.787 12.6616 128.02C12.8179 128.253 13.0409 128.434 13.3307 128.561C13.6205 128.689 13.9642 128.753 14.3619 128.753ZM14.3619 124.611C14.6744 124.611 14.9514 124.549 15.1929 124.424C15.4372 124.299 15.629 124.124 15.7682 123.9C15.9074 123.675 15.9784 123.412 15.9813 123.111C15.9784 122.816 15.9088 122.559 15.7724 122.34C15.6361 122.118 15.4472 121.948 15.2057 121.829C14.9642 121.706 14.683 121.645 14.3619 121.645C14.0352 121.645 13.7497 121.706 13.5054 121.829C13.2611 121.948 13.0722 122.118 12.9386 122.34C12.8051 122.559 12.7398 122.816 12.7426 123.111C12.7398 123.412 12.8065 123.675 12.9429 123.9C13.0821 124.124 13.2739 124.299 13.5182 124.424C13.7625 124.549 14.0438 124.611 14.3619 124.611ZM21.7788 129.691C21.1368 129.691 20.5899 129.516 20.1382 129.167C19.6865 128.814 19.3413 128.304 19.1027 127.637C18.864 126.966 18.7447 126.157 18.7447 125.208C18.7447 124.265 18.864 123.459 19.1027 122.792C19.3441 122.121 19.6907 121.61 20.1424 121.257C20.597 120.902 21.1424 120.725 21.7788 120.725C22.4152 120.725 22.9592 120.902 23.4109 121.257C23.8654 121.61 24.212 122.121 24.4507 122.792C24.6922 123.459 24.8129 124.265 24.8129 125.208C24.8129 126.157 24.6936 126.966 24.4549 127.637C24.2163 128.304 23.8711 128.814 23.4194 129.167C22.9677 129.516 22.4208 129.691 21.7788 129.691ZM21.7788 128.753C22.4152 128.753 22.9095 128.446 23.2618 127.833C23.614 127.219 23.7902 126.344 23.7902 125.208C23.7902 124.452 23.7092 123.809 23.5473 123.277C23.3882 122.746 23.1581 122.341 22.8569 122.063C22.5586 121.784 22.1993 121.645 21.7788 121.645C21.1481 121.645 20.6552 121.956 20.3001 122.579C19.945 123.198 19.7674 124.074 19.7674 125.208C19.7674 125.963 19.847 126.606 20.0061 127.134C20.1652 127.662 20.3939 128.064 20.6922 128.34C20.9933 128.615 21.3555 128.753 21.7788 128.753ZM29.25 129.691C28.608 129.691 28.0611 129.516 27.6094 129.167C27.1577 128.814 26.8125 128.304 26.5739 127.637C26.3352 126.966 26.2159 126.157 26.2159 125.208C26.2159 124.265 26.3352 123.459 26.5739 122.792C26.8153 122.121 27.1619 121.61 27.6136 121.257C28.0682 120.902 28.6136 120.725 29.25 120.725C29.8864 120.725 30.4304 120.902 30.8821 121.257C31.3366 121.61 31.6832 122.121 31.9219 122.792C32.1634 123.459 32.2841 124.265 32.2841 125.208C32.2841 126.157 32.1648 126.966 31.9261 127.637C31.6875 128.304 31.3423 128.814 30.8906 129.167C30.4389 129.516 29.892 129.691 29.25 129.691ZM29.25 128.753C29.8864 128.753 30.3807 128.446 30.733 127.833C31.0852 127.219 31.2614 126.344 31.2614 125.208C31.2614 124.452 31.1804 123.809 31.0185 123.277C30.8594 122.746 30.6293 122.341 30.3281 122.063C30.0298 121.784 29.6705 121.645 29.25 121.645C28.6193 121.645 28.1264 121.956 27.7713 122.579C27.4162 123.198 27.2386 124.074 27.2386 125.208C27.2386 125.963 27.3182 126.606 27.4773 127.134C27.6364 127.662 27.8651 128.064 28.1634 128.34C28.4645 128.615 28.8267 128.753 29.25 128.753Z" fill="#4B4B4B"/>
<line x1="45" y1="125.071" x2="621" y2="125.071" stroke="#F2F2F2"/>
<path d="M14.3705 168.548C14.0125 168.542 13.6545 168.474 13.2966 168.343C12.9386 168.213 12.6119 167.993 12.3165 167.683C12.021 167.37 11.7838 166.948 11.6048 166.417C11.4259 165.883 11.3364 165.213 11.3364 164.406C11.3364 163.633 11.4088 162.948 11.5537 162.352C11.6986 161.752 11.9088 161.248 12.1844 160.839C12.4599 160.427 12.7923 160.115 13.1815 159.902C13.5736 159.689 14.0153 159.582 14.5068 159.582C14.9955 159.582 15.4301 159.68 15.8108 159.876C16.1943 160.069 16.5068 160.339 16.7483 160.686C16.9898 161.032 17.146 161.431 17.217 161.883H16.1773C16.0807 161.491 15.8932 161.166 15.6148 160.907C15.3364 160.649 14.967 160.519 14.5068 160.519C13.8307 160.519 13.298 160.814 12.9088 161.402C12.5224 161.99 12.3278 162.815 12.325 163.877H12.3932C12.5523 163.636 12.7412 163.43 12.9599 163.26C13.1815 163.086 13.4259 162.953 13.6929 162.859C13.9599 162.765 14.2426 162.718 14.5409 162.718C15.0409 162.718 15.4983 162.843 15.9131 163.093C16.3278 163.341 16.6602 163.683 16.9102 164.12C17.1602 164.555 17.2852 165.054 17.2852 165.616C17.2852 166.156 17.1645 166.65 16.923 167.099C16.6815 167.545 16.342 167.9 15.9045 168.164C15.4699 168.426 14.9585 168.554 14.3705 168.548ZM14.3705 167.61C14.7284 167.61 15.0494 167.521 15.3335 167.342C15.6205 167.163 15.8463 166.923 16.0111 166.622C16.1787 166.321 16.2625 165.985 16.2625 165.616C16.2625 165.255 16.1815 164.927 16.0196 164.632C15.8605 164.333 15.6403 164.096 15.3591 163.92C15.0807 163.744 14.7625 163.656 14.4045 163.656C14.1347 163.656 13.8832 163.71 13.6503 163.818C13.4173 163.923 13.2128 164.068 13.0366 164.252C12.8634 164.437 12.727 164.649 12.6276 164.887C12.5281 165.123 12.4784 165.372 12.4784 165.633C12.4784 165.98 12.5594 166.304 12.7213 166.605C12.8861 166.906 13.1105 167.149 13.3946 167.333C13.6815 167.518 14.0068 167.61 14.3705 167.61ZM21.7788 168.548C21.1368 168.548 20.5899 168.373 20.1382 168.024C19.6865 167.671 19.3413 167.162 19.1027 166.494C18.864 165.823 18.7447 165.014 18.7447 164.065C18.7447 163.122 18.864 162.316 19.1027 161.649C19.3441 160.978 19.6907 160.467 20.1424 160.115C20.597 159.76 21.1424 159.582 21.7788 159.582C22.4152 159.582 22.9592 159.76 23.4109 160.115C23.8654 160.467 24.212 160.978 24.4507 161.649C24.6922 162.316 24.8129 163.122 24.8129 164.065C24.8129 165.014 24.6936 165.823 24.4549 166.494C24.2163 167.162 23.8711 167.671 23.4194 168.024C22.9677 168.373 22.4208 168.548 21.7788 168.548ZM21.7788 167.61C22.4152 167.61 22.9095 167.304 23.2618 166.69C23.614 166.076 23.7902 165.201 23.7902 164.065C23.7902 163.309 23.7092 162.666 23.5473 162.135C23.3882 161.603 23.1581 161.198 22.8569 160.92C22.5586 160.642 22.1993 160.502 21.7788 160.502C21.1481 160.502 20.6552 160.814 20.3001 161.436C19.945 162.055 19.7674 162.931 19.7674 164.065C19.7674 164.821 19.847 165.463 20.0061 165.991C20.1652 166.519 20.3939 166.921 20.6922 167.197C20.9933 167.473 21.3555 167.61 21.7788 167.61ZM29.25 168.548C28.608 168.548 28.0611 168.373 27.6094 168.024C27.1577 167.671 26.8125 167.162 26.5739 166.494C26.3352 165.823 26.2159 165.014 26.2159 164.065C26.2159 163.122 26.3352 162.316 26.5739 161.649C26.8153 160.978 27.1619 160.467 27.6136 160.115C28.0682 159.76 28.6136 159.582 29.25 159.582C29.8864 159.582 30.4304 159.76 30.8821 160.115C31.3366 160.467 31.6832 160.978 31.9219 161.649C32.1634 162.316 32.2841 163.122 32.2841 164.065C32.2841 165.014 32.1648 165.823 31.9261 166.494C31.6875 167.162 31.3423 167.671 30.8906 168.024C30.4389 168.373 29.892 168.548 29.25 168.548ZM29.25 167.61C29.8864 167.61 30.3807 167.304 30.733 166.69C31.0852 166.076 31.2614 165.201 31.2614 164.065C31.2614 163.309 31.1804 162.666 31.0185 162.135C30.8594 161.603 30.6293 161.198 30.3281 160.92C30.0298 160.642 29.6705 160.502 29.25 160.502C28.6193 160.502 28.1264 160.814 27.7713 161.436C27.4162 162.055 27.2386 162.931 27.2386 164.065C27.2386 164.821 27.3182 165.463 27.4773 165.991C27.6364 166.519 27.8651 166.921 28.1634 167.197C28.4645 167.473 28.8267 167.61 29.25 167.61Z" fill="#4B4B4B"/>
<line x1="45" y1="163.929" x2="621" y2="163.929" stroke="#F2F2F2"/>
<path d="M11.0572 205.496V204.627L14.8925 198.558H15.5232V199.905H15.097L12.1993 204.49V204.558H17.3641V205.496H11.0572ZM15.1652 207.286V205.232V204.827V198.558H16.1709V207.286H15.1652ZM21.7788 207.405C21.1368 207.405 20.5899 207.23 20.1382 206.881C19.6865 206.529 19.3413 206.019 19.1027 205.351C18.864 204.681 18.7447 203.871 18.7447 202.922C18.7447 201.979 18.864 201.174 19.1027 200.506C19.3441 199.835 19.6907 199.324 20.1424 198.972C20.597 198.617 21.1424 198.439 21.7788 198.439C22.4152 198.439 22.9592 198.617 23.4109 198.972C23.8654 199.324 24.212 199.835 24.4507 200.506C24.6922 201.174 24.8129 201.979 24.8129 202.922C24.8129 203.871 24.6936 204.681 24.4549 205.351C24.2163 206.019 23.8711 206.529 23.4194 206.881C22.9677 207.23 22.4208 207.405 21.7788 207.405ZM21.7788 206.468C22.4152 206.468 22.9095 206.161 23.2618 205.547C23.614 204.933 23.7902 204.058 23.7902 202.922C23.7902 202.166 23.7092 201.523 23.5473 200.992C23.3882 200.46 23.1581 200.056 22.8569 199.777C22.5586 199.499 22.1993 199.36 21.7788 199.36C21.1481 199.36 20.6552 199.671 20.3001 200.293C19.945 200.912 19.7674 201.789 19.7674 202.922C19.7674 203.678 19.847 204.32 20.0061 204.848C20.1652 205.377 20.3939 205.779 20.6922 206.054C20.9933 206.33 21.3555 206.468 21.7788 206.468ZM29.25 207.405C28.608 207.405 28.0611 207.23 27.6094 206.881C27.1577 206.529 26.8125 206.019 26.5739 205.351C26.3352 204.681 26.2159 203.871 26.2159 202.922C26.2159 201.979 26.3352 201.174 26.5739 200.506C26.8153 199.835 27.1619 199.324 27.6136 198.972C28.0682 198.617 28.6136 198.439 29.25 198.439C29.8864 198.439 30.4304 198.617 30.8821 198.972C31.3366 199.324 31.6832 199.835 31.9219 200.506C32.1634 201.174 32.2841 201.979 32.2841 202.922C32.2841 203.871 32.1648 204.681 31.9261 205.351C31.6875 206.019 31.3423 206.529 30.8906 206.881C30.4389 207.23 29.892 207.405 29.25 207.405ZM29.25 206.468C29.8864 206.468 30.3807 206.161 30.733 205.547C31.0852 204.933 31.2614 204.058 31.2614 202.922C31.2614 202.166 31.1804 201.523 31.0185 200.992C30.8594 200.46 30.6293 200.056 30.3281 199.777C30.0298 199.499 29.6705 199.36 29.25 199.36C28.6193 199.36 28.1264 199.671 27.7713 200.293C27.4162 200.912 27.2386 201.789 27.2386 202.922C27.2386 203.678 27.3182 204.32 27.4773 204.848C27.6364 205.377 27.8651 205.779 28.1634 206.054C28.4645 206.33 28.8267 206.468 29.25 206.468Z" fill="#4B4B4B"/>
<line x1="45" y1="202.786" x2="621" y2="202.786" stroke="#F2F2F2"/>
<path d="M11.6954 246.143V245.376L14.5761 242.222C14.9141 241.853 15.1925 241.532 15.4113 241.259C15.63 240.984 15.792 240.725 15.8971 240.484C16.005 240.239 16.059 239.984 16.059 239.717C16.059 239.41 15.9852 239.144 15.8374 238.92C15.6925 238.695 15.4937 238.522 15.2408 238.4C14.988 238.278 14.7039 238.217 14.3886 238.217C14.0533 238.217 13.7607 238.286 13.5107 238.425C13.2636 238.562 13.0718 238.754 12.9354 239.001C12.8019 239.248 12.7352 239.538 12.7352 239.87H11.7295C11.7295 239.359 11.8474 238.91 12.0832 238.524C12.319 238.137 12.64 237.836 13.0462 237.62C13.4553 237.404 13.9141 237.296 14.4227 237.296C14.934 237.296 15.3871 237.404 15.782 237.62C16.1769 237.836 16.4866 238.127 16.711 238.494C16.9354 238.86 17.0477 239.268 17.0477 239.717C17.0477 240.038 16.9894 240.352 16.8729 240.658C16.7593 240.962 16.5604 241.302 16.2764 241.677C15.9951 242.049 15.6045 242.504 15.1045 243.041L13.1442 245.137V245.205H17.2011V246.143H11.6954ZM21.7788 246.262C21.1368 246.262 20.5899 246.087 20.1382 245.738C19.6865 245.386 19.3413 244.876 19.1027 244.208C18.864 243.538 18.7447 242.728 18.7447 241.779C18.7447 240.836 18.864 240.031 19.1027 239.363C19.3441 238.693 19.6907 238.181 20.1424 237.829C20.597 237.474 21.1424 237.296 21.7788 237.296C22.4152 237.296 22.9592 237.474 23.4109 237.829C23.8654 238.181 24.212 238.693 24.4507 239.363C24.6922 240.031 24.8129 240.836 24.8129 241.779C24.8129 242.728 24.6936 243.538 24.4549 244.208C24.2163 244.876 23.8711 245.386 23.4194 245.738C22.9677 246.087 22.4208 246.262 21.7788 246.262ZM21.7788 245.325C22.4152 245.325 22.9095 245.018 23.2618 244.404C23.614 243.791 23.7902 242.916 23.7902 241.779C23.7902 241.024 23.7092 240.38 23.5473 239.849C23.3882 239.318 23.1581 238.913 22.8569 238.634C22.5586 238.356 22.1993 238.217 21.7788 238.217C21.1481 238.217 20.6552 238.528 20.3001 239.15C19.945 239.769 19.7674 240.646 19.7674 241.779C19.7674 242.535 19.847 243.177 20.0061 243.705C20.1652 244.234 20.3939 244.636 20.6922 244.911C20.9933 245.187 21.3555 245.325 21.7788 245.325ZM29.25 246.262C28.608 246.262 28.0611 246.087 27.6094 245.738C27.1577 245.386 26.8125 244.876 26.5739 244.208C26.3352 243.538 26.2159 242.728 26.2159 241.779C26.2159 240.836 26.3352 240.031 26.5739 239.363C26.8153 238.693 27.1619 238.181 27.6136 237.829C28.0682 237.474 28.6136 237.296 29.25 237.296C29.8864 237.296 30.4304 237.474 30.8821 237.829C31.3366 238.181 31.6832 238.693 31.9219 239.363C32.1634 240.031 32.2841 240.836 32.2841 241.779C32.2841 242.728 32.1648 243.538 31.9261 244.208C31.6875 244.876 31.3423 245.386 30.8906 245.738C30.4389 246.087 29.892 246.262 29.25 246.262ZM29.25 245.325C29.8864 245.325 30.3807 245.018 30.733 244.404C31.0852 243.791 31.2614 242.916 31.2614 241.779C31.2614 241.024 31.1804 240.38 31.0185 239.849C30.8594 239.318 30.6293 238.913 30.3281 238.634C30.0298 238.356 29.6705 238.217 29.25 238.217C28.6193 238.217 28.1264 238.528 27.7713 239.15C27.4162 239.769 27.2386 240.646 27.2386 241.779C27.2386 242.535 27.3182 243.177 27.4773 243.705C27.6364 244.234 27.8651 244.636 28.1634 244.911C28.4645 245.187 28.8267 245.325 29.25 245.325Z" fill="#4B4B4B"/>
<line x1="45" y1="241.643" x2="621" y2="241.643" stroke="#F2F2F2"/>
<path d="M29.25 285.119C28.608 285.119 28.0611 284.945 27.6094 284.595C27.1577 284.243 26.8125 283.733 26.5739 283.065C26.3352 282.395 26.2159 281.585 26.2159 280.636C26.2159 279.693 26.3352 278.888 26.5739 278.22C26.8153 277.55 27.1619 277.038 27.6136 276.686C28.0682 276.331 28.6136 276.153 29.25 276.153C29.8864 276.153 30.4304 276.331 30.8821 276.686C31.3366 277.038 31.6832 277.55 31.9219 278.22C32.1634 278.888 32.2841 279.693 32.2841 280.636C32.2841 281.585 32.1648 282.395 31.9261 283.065C31.6875 283.733 31.3423 284.243 30.8906 284.595C30.4389 284.945 29.892 285.119 29.25 285.119ZM29.25 284.182C29.8864 284.182 30.3807 283.875 30.733 283.261C31.0852 282.648 31.2614 281.773 31.2614 280.636C31.2614 279.881 31.1804 279.237 31.0185 278.706C30.8594 278.175 30.6293 277.77 30.3281 277.491C30.0298 277.213 29.6705 277.074 29.25 277.074C28.6193 277.074 28.1264 277.385 27.7713 278.007C27.4162 278.626 27.2386 279.503 27.2386 280.636C27.2386 281.392 27.3182 282.034 27.4773 282.562C27.6364 283.091 27.8651 283.493 28.1634 283.768C28.4645 284.044 28.8267 284.182 29.25 284.182Z" fill="#4B4B4B"/>
<line x1="45" y1="280.5" x2="621" y2="280.5" stroke="#F2F2F2"/>
<path d="M73.3977 306.273H74.4545V312.511C74.4545 313.068 74.3523 313.541 74.1477 313.93C73.9432 314.32 73.6548 314.615 73.2827 314.817C72.9105 315.018 72.4716 315.119 71.9659 315.119C71.4886 315.119 71.0639 315.033 70.6918 314.859C70.3196 314.683 70.027 314.433 69.8139 314.109C69.6009 313.786 69.4943 313.401 69.4943 312.955H70.5341C70.5341 313.202 70.5952 313.418 70.7173 313.602C70.8423 313.784 71.0128 313.926 71.2287 314.028C71.4446 314.131 71.6903 314.182 71.9659 314.182C72.2699 314.182 72.5284 314.118 72.7415 313.99C72.9545 313.862 73.1165 313.675 73.2273 313.428C73.3409 313.178 73.3977 312.872 73.3977 312.511V306.273ZM78.3334 315.153C77.9186 315.153 77.5422 315.075 77.2042 314.919C76.8661 314.76 76.5976 314.531 76.3988 314.233C76.1999 313.932 76.1005 313.568 76.1005 313.142C76.1005 312.767 76.1743 312.463 76.3221 312.23C76.4698 311.994 76.6672 311.81 76.9144 311.676C77.1615 311.543 77.4343 311.443 77.7326 311.378C78.0337 311.31 78.3363 311.256 78.6402 311.216C79.038 311.165 79.3604 311.126 79.6076 311.101C79.8576 311.072 80.0394 311.026 80.153 310.96C80.2695 310.895 80.3277 310.781 80.3277 310.619V310.585C80.3277 310.165 80.2127 309.838 79.9826 309.605C79.7553 309.372 79.4101 309.256 78.9471 309.256C78.4669 309.256 78.0905 309.361 77.8178 309.571C77.5451 309.781 77.3533 310.006 77.2425 310.244L76.288 309.903C76.4584 309.506 76.6857 309.196 76.9698 308.974C77.2567 308.75 77.5692 308.594 77.9073 308.506C78.2482 308.415 78.5834 308.369 78.913 308.369C79.1232 308.369 79.3647 308.395 79.6374 308.446C79.913 308.494 80.1786 308.595 80.4343 308.749C80.6928 308.902 80.9073 309.134 81.0777 309.443C81.2482 309.753 81.3334 310.168 81.3334 310.688V315H80.3277V314.114H80.2766C80.2084 314.256 80.0948 314.408 79.9357 314.57C79.7766 314.732 79.565 314.869 79.3007 314.983C79.0365 315.097 78.7141 315.153 78.3334 315.153ZM78.4868 314.25C78.8846 314.25 79.2198 314.172 79.4925 314.016C79.7681 313.859 79.9755 313.658 80.1147 313.411C80.2567 313.163 80.3277 312.903 80.3277 312.631V311.71C80.2851 311.761 80.1914 311.808 80.0465 311.851C79.9044 311.891 79.7397 311.926 79.5522 311.957C79.3675 311.986 79.1871 312.011 79.011 312.034C78.8377 312.054 78.6971 312.071 78.5891 312.085C78.3277 312.119 78.0834 312.175 77.8561 312.251C77.6317 312.325 77.4499 312.437 77.3107 312.588C77.1743 312.736 77.1061 312.937 77.1061 313.193C77.1061 313.543 77.2354 313.807 77.4939 313.986C77.7553 314.162 78.0863 314.25 78.4868 314.25ZM84.1459 311.062V315H83.1402V308.455H84.1118V309.477H84.197C84.3504 309.145 84.5834 308.878 84.8959 308.676C85.2084 308.472 85.6118 308.369 86.1061 308.369C86.5493 308.369 86.9371 308.46 87.2695 308.642C87.6018 308.821 87.8604 309.094 88.045 309.46C88.2297 309.824 88.322 310.284 88.322 310.841V315H87.3163V310.909C87.3163 310.395 87.1828 309.994 86.9158 309.707C86.6487 309.418 86.2822 309.273 85.8163 309.273C85.4953 309.273 85.2084 309.342 84.9555 309.482C84.7055 309.621 84.5081 309.824 84.3632 310.091C84.2183 310.358 84.1459 310.682 84.1459 311.062Z" fill="#4B4B4B"/>
<path d="M115.148 315V306.273H120.381V307.21H116.204V310.159H119.989V311.097H116.204V315H115.148ZM124.289 315.136C123.659 315.136 123.115 314.997 122.657 314.719C122.203 314.438 121.852 314.045 121.605 313.543C121.36 313.037 121.238 312.449 121.238 311.778C121.238 311.108 121.36 310.517 121.605 310.006C121.852 309.491 122.196 309.091 122.636 308.804C123.079 308.514 123.596 308.369 124.187 308.369C124.528 308.369 124.865 308.426 125.197 308.54C125.529 308.653 125.832 308.838 126.105 309.094C126.377 309.347 126.595 309.682 126.757 310.099C126.919 310.517 127 311.031 127 311.642V312.068H121.954V311.199H125.977C125.977 310.83 125.903 310.5 125.755 310.21C125.61 309.92 125.403 309.692 125.133 309.524C124.866 309.357 124.551 309.273 124.187 309.273C123.786 309.273 123.44 309.372 123.147 309.571C122.857 309.767 122.634 310.023 122.478 310.338C122.322 310.653 122.244 310.991 122.244 311.352V311.932C122.244 312.426 122.329 312.845 122.5 313.189C122.673 313.53 122.913 313.79 123.22 313.969C123.527 314.145 123.883 314.233 124.289 314.233C124.553 314.233 124.792 314.196 125.005 314.122C125.221 314.045 125.407 313.932 125.563 313.781C125.72 313.628 125.84 313.437 125.926 313.21L126.897 313.483C126.795 313.812 126.623 314.102 126.382 314.352C126.14 314.599 125.842 314.793 125.487 314.932C125.132 315.068 124.732 315.136 124.289 315.136ZM128.637 315V306.273H129.643V309.494H129.728C129.802 309.381 129.904 309.236 130.035 309.06C130.168 308.881 130.359 308.722 130.606 308.582C130.856 308.44 131.194 308.369 131.62 308.369C132.171 308.369 132.657 308.507 133.077 308.783C133.498 309.058 133.826 309.449 134.062 309.955C134.297 310.46 134.415 311.057 134.415 311.744C134.415 312.438 134.297 313.038 134.062 313.547C133.826 314.053 133.499 314.445 133.082 314.723C132.664 314.999 132.182 315.136 131.637 315.136C131.216 315.136 130.88 315.067 130.627 314.928C130.374 314.786 130.18 314.625 130.043 314.446C129.907 314.264 129.802 314.114 129.728 313.994H129.609V315H128.637ZM129.626 311.727C129.626 312.222 129.698 312.658 129.843 313.036C129.988 313.411 130.199 313.705 130.478 313.918C130.756 314.128 131.097 314.233 131.501 314.233C131.921 314.233 132.272 314.122 132.553 313.901C132.837 313.676 133.05 313.375 133.192 312.997C133.337 312.616 133.41 312.193 133.41 311.727C133.41 311.267 133.339 310.852 133.197 310.483C133.057 310.111 132.846 309.817 132.562 309.601C132.28 309.382 131.927 309.273 131.501 309.273C131.091 309.273 130.748 309.376 130.469 309.584C130.191 309.788 129.981 310.075 129.839 310.445C129.697 310.811 129.626 311.239 129.626 311.727Z" fill="#4B4B4B"/>
<path d="M160.239 306.273H161.5L164.466 313.517H164.568L167.534 306.273H168.796V315H167.807V308.369H167.722L164.994 315H164.04L161.313 308.369H161.227V315H160.239V306.273ZM172.675 315.153C172.261 315.153 171.884 315.075 171.546 314.919C171.208 314.76 170.94 314.531 170.741 314.233C170.542 313.932 170.443 313.568 170.443 313.142C170.443 312.767 170.516 312.463 170.664 312.23C170.812 311.994 171.009 311.81 171.256 311.676C171.504 311.543 171.776 311.443 172.075 311.378C172.376 311.31 172.678 311.256 172.982 311.216C173.38 311.165 173.702 311.126 173.95 311.101C174.2 311.072 174.381 311.026 174.495 310.96C174.612 310.895 174.67 310.781 174.67 310.619V310.585C174.67 310.165 174.555 309.838 174.325 309.605C174.097 309.372 173.752 309.256 173.289 309.256C172.809 309.256 172.433 309.361 172.16 309.571C171.887 309.781 171.695 310.006 171.585 310.244L170.63 309.903C170.8 309.506 171.028 309.196 171.312 308.974C171.599 308.75 171.911 308.594 172.249 308.506C172.59 308.415 172.925 308.369 173.255 308.369C173.465 308.369 173.707 308.395 173.979 308.446C174.255 308.494 174.521 308.595 174.776 308.749C175.035 308.902 175.249 309.134 175.42 309.443C175.59 309.753 175.675 310.168 175.675 310.688V315H174.67V314.114H174.619C174.55 314.256 174.437 314.408 174.278 314.57C174.119 314.732 173.907 314.869 173.643 314.983C173.379 315.097 173.056 315.153 172.675 315.153ZM172.829 314.25C173.227 314.25 173.562 314.172 173.835 314.016C174.11 313.859 174.318 313.658 174.457 313.411C174.599 313.163 174.67 312.903 174.67 312.631V311.71C174.627 311.761 174.533 311.808 174.389 311.851C174.246 311.891 174.082 311.926 173.894 311.957C173.71 311.986 173.529 312.011 173.353 312.034C173.18 312.054 173.039 312.071 172.931 312.085C172.67 312.119 172.425 312.175 172.198 312.251C171.974 312.325 171.792 312.437 171.653 312.588C171.516 312.736 171.448 312.937 171.448 313.193C171.448 313.543 171.577 313.807 171.836 313.986C172.097 314.162 172.428 314.25 172.829 314.25ZM177.482 315V308.455H178.454V309.443H178.522C178.641 309.119 178.857 308.857 179.17 308.655C179.482 308.453 179.835 308.352 180.227 308.352C180.3 308.352 180.393 308.354 180.504 308.357C180.614 308.359 180.698 308.364 180.755 308.369V309.392C180.721 309.384 180.643 309.371 180.521 309.354C180.401 309.334 180.275 309.324 180.141 309.324C179.823 309.324 179.539 309.391 179.289 309.524C179.042 309.655 178.846 309.837 178.701 310.07C178.559 310.3 178.488 310.562 178.488 310.858V315H177.482Z" fill="#4B4B4B"/>
<path d="M206.687 315H205.58L208.784 306.273H209.875L213.08 315H211.972L209.364 307.653H209.295L206.687 315ZM207.097 311.591H211.562V312.528H207.097V311.591ZM214.274 317.455V308.455H215.245V309.494H215.365C215.439 309.381 215.541 309.236 215.671 309.06C215.805 308.881 215.995 308.722 216.242 308.582C216.492 308.44 216.831 308.369 217.257 308.369C217.808 308.369 218.294 308.507 218.714 308.783C219.135 309.058 219.463 309.449 219.698 309.955C219.934 310.46 220.052 311.057 220.052 311.744C220.052 312.438 219.934 313.038 219.698 313.547C219.463 314.053 219.136 314.445 218.718 314.723C218.301 314.999 217.819 315.136 217.274 315.136C216.853 315.136 216.517 315.067 216.264 314.928C216.011 314.786 215.816 314.625 215.68 314.446C215.544 314.264 215.439 314.114 215.365 313.994H215.279V317.455H214.274ZM215.262 311.727C215.262 312.222 215.335 312.658 215.48 313.036C215.625 313.411 215.836 313.705 216.115 313.918C216.393 314.128 216.734 314.233 217.137 314.233C217.558 314.233 217.909 314.122 218.19 313.901C218.474 313.676 218.687 313.375 218.829 312.997C218.974 312.616 219.046 312.193 219.046 311.727C219.046 311.267 218.975 310.852 218.833 310.483C218.694 310.111 218.483 309.817 218.198 309.601C217.917 309.382 217.564 309.273 217.137 309.273C216.728 309.273 216.385 309.376 216.106 309.584C215.828 309.788 215.617 310.075 215.475 310.445C215.333 310.811 215.262 311.239 215.262 311.727ZM221.557 315V308.455H222.529V309.443H222.597C222.717 309.119 222.932 308.857 223.245 308.655C223.557 308.453 223.91 308.352 224.302 308.352C224.376 308.352 224.468 308.354 224.579 308.357C224.69 308.359 224.773 308.364 224.83 308.369V309.392C224.796 309.384 224.718 309.371 224.596 309.354C224.476 309.334 224.35 309.324 224.217 309.324C223.898 309.324 223.614 309.391 223.364 309.524C223.117 309.655 222.921 309.837 222.776 310.07C222.634 310.3 222.563 310.562 222.563 310.858V315H221.557Z" fill="#4B4B4B"/>
<path d="M250.421 306.273H251.682L254.648 313.517H254.75L257.716 306.273H258.977V315H257.989V308.369H257.904L255.176 315H254.222L251.494 308.369H251.409V315H250.421V306.273ZM262.857 315.153C262.443 315.153 262.066 315.075 261.728 314.919C261.39 314.76 261.122 314.531 260.923 314.233C260.724 313.932 260.624 313.568 260.624 313.142C260.624 312.767 260.698 312.463 260.846 312.23C260.994 311.994 261.191 311.81 261.438 311.676C261.685 311.543 261.958 311.443 262.256 311.378C262.558 311.31 262.86 311.256 263.164 311.216C263.562 311.165 263.884 311.126 264.131 311.101C264.381 311.072 264.563 311.026 264.677 310.96C264.793 310.895 264.852 310.781 264.852 310.619V310.585C264.852 310.165 264.737 309.838 264.506 309.605C264.279 309.372 263.934 309.256 263.471 309.256C262.991 309.256 262.614 309.361 262.342 309.571C262.069 309.781 261.877 310.006 261.766 310.244L260.812 309.903C260.982 309.506 261.21 309.196 261.494 308.974C261.781 308.75 262.093 308.594 262.431 308.506C262.772 308.415 263.107 308.369 263.437 308.369C263.647 308.369 263.889 308.395 264.161 308.446C264.437 308.494 264.703 308.595 264.958 308.749C265.217 308.902 265.431 309.134 265.602 309.443C265.772 309.753 265.857 310.168 265.857 310.688V315H264.852V314.114H264.801C264.732 314.256 264.619 314.408 264.46 314.57C264.301 314.732 264.089 314.869 263.825 314.983C263.56 315.097 263.238 315.153 262.857 315.153ZM263.011 314.25C263.408 314.25 263.744 314.172 264.016 314.016C264.292 313.859 264.499 313.658 264.639 313.411C264.781 313.163 264.852 312.903 264.852 312.631V311.71C264.809 311.761 264.715 311.808 264.57 311.851C264.428 311.891 264.264 311.926 264.076 311.957C263.891 311.986 263.711 312.011 263.535 312.034C263.362 312.054 263.221 312.071 263.113 312.085C262.852 312.119 262.607 312.175 262.38 312.251C262.156 312.325 261.974 312.437 261.835 312.588C261.698 312.736 261.63 312.937 261.63 313.193C261.63 313.543 261.759 313.807 262.018 313.986C262.279 314.162 262.61 314.25 263.011 314.25ZM268.077 317.455C267.907 317.455 267.755 317.44 267.622 317.412C267.488 317.386 267.396 317.361 267.345 317.335L267.6 316.449C267.845 316.511 268.06 316.534 268.248 316.517C268.435 316.5 268.602 316.416 268.747 316.266C268.894 316.118 269.029 315.878 269.151 315.545L269.339 315.034L266.918 308.455H268.009L269.816 313.67H269.884L271.691 308.455H272.782L270.004 315.955C269.879 316.293 269.724 316.572 269.539 316.794C269.354 317.018 269.14 317.185 268.896 317.293C268.654 317.401 268.381 317.455 268.077 317.455Z" fill="#4B4B4B"/>
<path d="M301.852 306.273H302.909V312.511C302.909 313.068 302.807 313.541 302.602 313.93C302.398 314.32 302.109 314.615 301.737 314.817C301.365 315.018 300.926 315.119 300.42 315.119C299.943 315.119 299.519 315.033 299.146 314.859C298.774 314.683 298.482 314.433 298.269 314.109C298.055 313.786 297.949 313.401 297.949 312.955H298.989C298.989 313.202 299.05 313.418 299.172 313.602C299.297 313.784 299.467 313.926 299.683 314.028C299.899 314.131 300.145 314.182 300.42 314.182C300.724 314.182 300.983 314.118 301.196 313.99C301.409 313.862 301.571 313.675 301.682 313.428C301.795 313.178 301.852 312.872 301.852 312.511V306.273ZM308.987 312.324V308.455H309.993V315H308.987V313.892H308.919C308.765 314.224 308.527 314.507 308.203 314.74C307.879 314.97 307.47 315.085 306.976 315.085C306.566 315.085 306.203 314.996 305.885 314.817C305.566 314.635 305.316 314.362 305.135 313.999C304.953 313.632 304.862 313.17 304.862 312.614V308.455H305.868V312.545C305.868 313.023 306.001 313.403 306.268 313.688C306.538 313.972 306.882 314.114 307.299 314.114C307.549 314.114 307.804 314.05 308.062 313.922C308.324 313.794 308.542 313.598 308.718 313.334C308.897 313.07 308.987 312.733 308.987 312.324ZM312.811 311.062V315H311.806V308.455H312.777V309.477H312.863C313.016 309.145 313.249 308.878 313.561 308.676C313.874 308.472 314.277 308.369 314.772 308.369C315.215 308.369 315.603 308.46 315.935 308.642C316.267 308.821 316.526 309.094 316.711 309.46C316.895 309.824 316.988 310.284 316.988 310.841V315H315.982V310.909C315.982 310.395 315.848 309.994 315.581 309.707C315.314 309.418 314.948 309.273 314.482 309.273C314.161 309.273 313.874 309.342 313.621 309.482C313.371 309.621 313.174 309.824 313.029 310.091C312.884 310.358 312.811 310.682 312.811 311.062Z" fill="#4B4B4B"/>
<path d="M346.943 306.273H348V312.511C348 313.068 347.898 313.541 347.693 313.93C347.489 314.32 347.2 314.615 346.828 314.817C346.456 315.018 346.017 315.119 345.511 315.119C345.034 315.119 344.609 315.033 344.237 314.859C343.865 314.683 343.572 314.433 343.359 314.109C343.146 313.786 343.04 313.401 343.04 312.955H344.08C344.08 313.202 344.141 313.418 344.263 313.602C344.388 313.784 344.558 313.926 344.774 314.028C344.99 314.131 345.236 314.182 345.511 314.182C345.815 314.182 346.074 314.118 346.287 313.99C346.5 313.862 346.662 313.675 346.773 313.428C346.886 313.178 346.943 312.872 346.943 312.511V306.273ZM354.078 312.324V308.455H355.083V315H354.078V313.892H354.01C353.856 314.224 353.617 314.507 353.294 314.74C352.97 314.97 352.561 315.085 352.066 315.085C351.657 315.085 351.294 314.996 350.975 314.817C350.657 314.635 350.407 314.362 350.225 313.999C350.044 313.632 349.953 313.17 349.953 312.614V308.455H350.958V312.545C350.958 313.023 351.092 313.403 351.359 313.688C351.629 313.972 351.973 314.114 352.39 314.114C352.64 314.114 352.894 314.05 353.153 313.922C353.414 313.794 353.633 313.598 353.809 313.334C353.988 313.07 354.078 312.733 354.078 312.324ZM357.902 306.273V315H356.897V306.273H357.902Z" fill="#4B4B4B"/>
<path d="M385.051 315H383.943L387.148 306.273H388.239L391.443 315H390.335L387.727 307.653H387.659L385.051 315ZM385.46 311.591H389.926V312.528H385.46V311.591ZM396.763 312.324V308.455H397.768V315H396.763V313.892H396.694C396.541 314.224 396.302 314.507 395.978 314.74C395.655 314.97 395.245 315.085 394.751 315.085C394.342 315.085 393.978 314.996 393.66 314.817C393.342 314.635 393.092 314.362 392.91 313.999C392.728 313.632 392.638 313.17 392.638 312.614V308.455H393.643V312.545C393.643 313.023 393.777 313.403 394.044 313.688C394.314 313.972 394.657 314.114 395.075 314.114C395.325 314.114 395.579 314.05 395.838 313.922C396.099 313.794 396.318 313.598 396.494 313.334C396.673 313.07 396.763 312.733 396.763 312.324ZM402.223 317.591C401.738 317.591 401.32 317.528 400.971 317.403C400.621 317.281 400.33 317.119 400.097 316.918C399.867 316.719 399.684 316.506 399.547 316.278L400.348 315.716C400.439 315.835 400.554 315.972 400.694 316.125C400.833 316.281 401.023 316.416 401.265 316.53C401.509 316.646 401.829 316.705 402.223 316.705C402.752 316.705 403.188 316.577 403.532 316.321C403.875 316.065 404.047 315.665 404.047 315.119V313.79H403.962C403.888 313.909 403.783 314.057 403.647 314.233C403.513 314.406 403.32 314.561 403.067 314.697C402.817 314.831 402.479 314.898 402.053 314.898C401.525 314.898 401.05 314.773 400.63 314.523C400.212 314.273 399.881 313.909 399.637 313.432C399.395 312.955 399.275 312.375 399.275 311.693C399.275 311.023 399.392 310.439 399.628 309.942C399.864 309.442 400.192 309.055 400.613 308.783C401.033 308.507 401.519 308.369 402.07 308.369C402.496 308.369 402.834 308.44 403.084 308.582C403.337 308.722 403.53 308.881 403.664 309.06C403.8 309.236 403.905 309.381 403.979 309.494H404.081V308.455H405.053V315.188C405.053 315.75 404.925 316.207 404.669 316.56C404.417 316.915 404.076 317.175 403.647 317.339C403.221 317.507 402.746 317.591 402.223 317.591ZM402.189 313.994C402.593 313.994 402.934 313.902 403.212 313.717C403.49 313.533 403.702 313.267 403.847 312.92C403.992 312.574 404.064 312.159 404.064 311.676C404.064 311.205 403.993 310.788 403.851 310.428C403.709 310.067 403.499 309.784 403.221 309.58C402.942 309.375 402.598 309.273 402.189 309.273C401.763 309.273 401.408 309.381 401.124 309.597C400.843 309.812 400.631 310.102 400.489 310.466C400.35 310.83 400.28 311.233 400.28 311.676C400.28 312.131 400.351 312.533 400.493 312.882C400.638 313.229 400.851 313.501 401.132 313.7C401.417 313.896 401.769 313.994 402.189 313.994Z" fill="#4B4B4B"/>
<path d="M436.557 308.455C436.506 308.023 436.298 307.688 435.935 307.449C435.571 307.21 435.125 307.091 434.597 307.091C434.21 307.091 433.872 307.153 433.582 307.278C433.295 307.403 433.071 307.575 432.909 307.794C432.75 308.013 432.67 308.261 432.67 308.54C432.67 308.773 432.726 308.973 432.837 309.141C432.95 309.305 433.095 309.443 433.271 309.554C433.447 309.662 433.632 309.751 433.825 309.822C434.018 309.891 434.196 309.946 434.358 309.989L435.244 310.227C435.472 310.287 435.724 310.369 436.003 310.474C436.284 310.58 436.553 310.723 436.808 310.905C437.067 311.084 437.28 311.314 437.447 311.595C437.615 311.876 437.699 312.222 437.699 312.631C437.699 313.102 437.575 313.528 437.328 313.909C437.084 314.29 436.726 314.592 436.254 314.817C435.786 315.041 435.216 315.153 434.545 315.153C433.92 315.153 433.379 315.053 432.922 314.851C432.467 314.649 432.109 314.368 431.848 314.007C431.59 313.646 431.443 313.227 431.409 312.75H432.5C432.528 313.08 432.639 313.352 432.832 313.568C433.028 313.781 433.276 313.94 433.574 314.045C433.875 314.148 434.199 314.199 434.545 314.199C434.949 314.199 435.311 314.134 435.632 314.003C435.953 313.869 436.207 313.685 436.395 313.449C436.582 313.21 436.676 312.932 436.676 312.614C436.676 312.324 436.595 312.088 436.433 311.906C436.271 311.724 436.058 311.577 435.794 311.463C435.53 311.349 435.244 311.25 434.938 311.165L433.864 310.858C433.182 310.662 432.642 310.382 432.244 310.018C431.847 309.655 431.648 309.179 431.648 308.591C431.648 308.102 431.78 307.676 432.044 307.312C432.311 306.946 432.669 306.662 433.118 306.46C433.57 306.256 434.074 306.153 434.631 306.153C435.193 306.153 435.693 306.254 436.131 306.456C436.568 306.655 436.915 306.928 437.17 307.274C437.429 307.621 437.565 308.014 437.58 308.455H436.557ZM442.016 315.136C441.385 315.136 440.841 314.997 440.384 314.719C439.929 314.438 439.578 314.045 439.331 313.543C439.087 313.037 438.964 312.449 438.964 311.778C438.964 311.108 439.087 310.517 439.331 310.006C439.578 309.491 439.922 309.091 440.362 308.804C440.805 308.514 441.322 308.369 441.913 308.369C442.254 308.369 442.591 308.426 442.923 308.54C443.256 308.653 443.558 308.838 443.831 309.094C444.104 309.347 444.321 309.682 444.483 310.099C444.645 310.517 444.726 311.031 444.726 311.642V312.068H439.68V311.199H443.703C443.703 310.83 443.629 310.5 443.482 310.21C443.337 309.92 443.129 309.692 442.859 309.524C442.592 309.357 442.277 309.273 441.913 309.273C441.513 309.273 441.166 309.372 440.874 309.571C440.584 309.767 440.361 310.023 440.205 310.338C440.048 310.653 439.97 310.991 439.97 311.352V311.932C439.97 312.426 440.055 312.845 440.226 313.189C440.399 313.53 440.639 313.79 440.946 313.969C441.253 314.145 441.609 314.233 442.016 314.233C442.28 314.233 442.518 314.196 442.732 314.122C442.947 314.045 443.134 313.932 443.29 313.781C443.446 313.628 443.567 313.437 443.652 313.21L444.624 313.483C444.521 313.812 444.349 314.102 444.108 314.352C443.866 314.599 443.568 314.793 443.213 314.932C442.858 315.068 442.459 315.136 442.016 315.136ZM446.227 317.455V308.455H447.198V309.494H447.318C447.392 309.381 447.494 309.236 447.625 309.06C447.758 308.881 447.948 308.722 448.196 308.582C448.446 308.44 448.784 308.369 449.21 308.369C449.761 308.369 450.247 308.507 450.667 308.783C451.088 309.058 451.416 309.449 451.652 309.955C451.887 310.46 452.005 311.057 452.005 311.744C452.005 312.438 451.887 313.038 451.652 313.547C451.416 314.053 451.089 314.445 450.671 314.723C450.254 314.999 449.772 315.136 449.227 315.136C448.806 315.136 448.47 315.067 448.217 314.928C447.964 314.786 447.769 314.625 447.633 314.446C447.497 314.264 447.392 314.114 447.318 313.994H447.233V317.455H446.227ZM447.216 311.727C447.216 312.222 447.288 312.658 447.433 313.036C447.578 313.411 447.789 313.705 448.068 313.918C448.346 314.128 448.687 314.233 449.091 314.233C449.511 314.233 449.862 314.122 450.143 313.901C450.427 313.676 450.64 313.375 450.782 312.997C450.927 312.616 451 312.193 451 311.727C451 311.267 450.929 310.852 450.787 310.483C450.647 310.111 450.436 309.817 450.152 309.601C449.87 309.382 449.517 309.273 449.091 309.273C448.681 309.273 448.338 309.376 448.059 309.584C447.781 309.788 447.571 310.075 447.429 310.445C447.287 310.811 447.216 311.239 447.216 311.727ZM456.357 308.455V309.307H452.965V308.455H456.357ZM453.954 306.886H454.959V313.125C454.959 313.409 455.001 313.622 455.083 313.764C455.168 313.903 455.276 313.997 455.407 314.045C455.54 314.091 455.681 314.114 455.829 314.114C455.94 314.114 456.03 314.108 456.101 314.097C456.173 314.082 456.229 314.071 456.272 314.062L456.476 314.966C456.408 314.991 456.313 315.017 456.191 315.043C456.069 315.071 455.914 315.085 455.726 315.085C455.442 315.085 455.164 315.024 454.891 314.902C454.621 314.78 454.397 314.594 454.218 314.344C454.042 314.094 453.954 313.778 453.954 313.398V306.886Z" fill="#4B4B4B"/>
<path d="M490.239 310.636C490.239 311.557 490.072 312.352 489.74 313.023C489.408 313.693 488.952 314.21 488.372 314.574C487.793 314.938 487.131 315.119 486.386 315.119C485.642 315.119 484.98 314.938 484.401 314.574C483.821 314.21 483.365 313.693 483.033 313.023C482.7 312.352 482.534 311.557 482.534 310.636C482.534 309.716 482.7 308.92 483.033 308.25C483.365 307.58 483.821 307.062 484.401 306.699C484.98 306.335 485.642 306.153 486.386 306.153C487.131 306.153 487.793 306.335 488.372 306.699C488.952 307.062 489.408 307.58 489.74 308.25C490.072 308.92 490.239 309.716 490.239 310.636ZM489.216 310.636C489.216 309.881 489.089 309.243 488.837 308.723C488.587 308.203 488.247 307.81 487.818 307.543C487.392 307.276 486.915 307.142 486.386 307.142C485.858 307.142 485.379 307.276 484.95 307.543C484.524 307.81 484.185 308.203 483.932 308.723C483.682 309.243 483.557 309.881 483.557 310.636C483.557 311.392 483.682 312.03 483.932 312.55C484.185 313.07 484.524 313.463 484.95 313.73C485.379 313.997 485.858 314.131 486.386 314.131C486.915 314.131 487.392 313.997 487.818 313.73C488.247 313.463 488.587 313.07 488.837 312.55C489.089 312.03 489.216 311.392 489.216 310.636ZM494.509 315.136C493.896 315.136 493.367 314.991 492.924 314.702C492.481 314.412 492.14 314.013 491.902 313.504C491.663 312.996 491.544 312.415 491.544 311.761C491.544 311.097 491.666 310.51 491.91 310.001C492.157 309.49 492.501 309.091 492.941 308.804C493.384 308.514 493.902 308.369 494.492 308.369C494.953 308.369 495.367 308.455 495.737 308.625C496.106 308.795 496.409 309.034 496.644 309.341C496.88 309.648 497.027 310.006 497.083 310.415H496.078C496.001 310.116 495.831 309.852 495.566 309.622C495.305 309.389 494.953 309.273 494.509 309.273C494.117 309.273 493.774 309.375 493.478 309.58C493.186 309.781 492.957 310.067 492.792 310.436C492.63 310.803 492.549 311.233 492.549 311.727C492.549 312.233 492.629 312.673 492.788 313.048C492.95 313.423 493.177 313.714 493.47 313.922C493.765 314.129 494.112 314.233 494.509 314.233C494.771 314.233 495.008 314.188 495.221 314.097C495.434 314.006 495.615 313.875 495.762 313.705C495.91 313.534 496.015 313.33 496.078 313.091H497.083C497.027 313.477 496.886 313.825 496.661 314.135C496.44 314.442 496.146 314.686 495.779 314.868C495.416 315.047 494.992 315.136 494.509 315.136ZM501.371 308.455V309.307H497.979V308.455H501.371ZM498.968 306.886H499.974V313.125C499.974 313.409 500.015 313.622 500.097 313.764C500.182 313.903 500.29 313.997 500.421 314.045C500.555 314.091 500.695 314.114 500.843 314.114C500.954 314.114 501.045 314.108 501.116 314.097C501.187 314.082 501.243 314.071 501.286 314.062L501.491 314.966C501.422 314.991 501.327 315.017 501.205 315.043C501.083 315.071 500.928 315.085 500.741 315.085C500.457 315.085 500.178 315.024 499.905 314.902C499.636 314.78 499.411 314.594 499.232 314.344C499.056 314.094 498.968 313.778 498.968 313.398V306.886Z" fill="#4B4B4B"/>
<path d="M534.886 306.273V315H533.864L529.108 308.148H529.023V315H527.966V306.273H528.989L533.761 313.142H533.847V306.273H534.886ZM539.495 315.136C538.904 315.136 538.386 314.996 537.94 314.714C537.497 314.433 537.15 314.04 536.9 313.534C536.653 313.028 536.529 312.437 536.529 311.761C536.529 311.08 536.653 310.484 536.9 309.976C537.15 309.467 537.497 309.072 537.94 308.791C538.386 308.51 538.904 308.369 539.495 308.369C540.086 308.369 540.603 308.51 541.046 308.791C541.492 309.072 541.839 309.467 542.086 309.976C542.336 310.484 542.461 311.08 542.461 311.761C542.461 312.437 542.336 313.028 542.086 313.534C541.839 314.04 541.492 314.433 541.046 314.714C540.603 314.996 540.086 315.136 539.495 315.136ZM539.495 314.233C539.944 314.233 540.313 314.118 540.603 313.888C540.893 313.658 541.107 313.355 541.247 312.98C541.386 312.605 541.455 312.199 541.455 311.761C541.455 311.324 541.386 310.916 541.247 310.538C541.107 310.161 540.893 309.855 540.603 309.622C540.313 309.389 539.944 309.273 539.495 309.273C539.046 309.273 538.677 309.389 538.387 309.622C538.097 309.855 537.883 310.161 537.744 310.538C537.604 310.916 537.535 311.324 537.535 311.761C537.535 312.199 537.604 312.605 537.744 312.98C537.883 313.355 538.097 313.658 538.387 313.888C538.677 314.118 539.046 314.233 539.495 314.233ZM549.085 308.455L546.665 315H545.642L543.222 308.455H544.313L546.119 313.67H546.188L547.994 308.455H549.085Z" fill="#4B4B4B"/>
<path d="M577.75 315H575.057V306.273H577.869C578.716 306.273 579.44 306.447 580.043 306.797C580.645 307.143 581.107 307.642 581.428 308.293C581.749 308.94 581.909 309.716 581.909 310.619C581.909 311.528 581.747 312.311 581.423 312.967C581.099 313.621 580.628 314.124 580.009 314.476C579.389 314.825 578.636 315 577.75 315ZM576.114 314.062H577.682C578.403 314.062 579.001 313.923 579.476 313.645C579.95 313.366 580.304 312.97 580.537 312.456C580.77 311.942 580.886 311.33 580.886 310.619C580.886 309.915 580.771 309.308 580.541 308.8C580.311 308.288 579.967 307.896 579.51 307.624C579.053 307.348 578.483 307.21 577.801 307.21H576.114V314.062ZM586.261 315.136C585.63 315.136 585.086 314.997 584.629 314.719C584.174 314.438 583.823 314.045 583.576 313.543C583.332 313.037 583.21 312.449 583.21 311.778C583.21 311.108 583.332 310.517 583.576 310.006C583.823 309.491 584.167 309.091 584.608 308.804C585.051 308.514 585.568 308.369 586.159 308.369C586.5 308.369 586.836 308.426 587.169 308.54C587.501 308.653 587.804 308.838 588.076 309.094C588.349 309.347 588.566 309.682 588.728 310.099C588.89 310.517 588.971 311.031 588.971 311.642V312.068H583.926V311.199H587.948C587.948 310.83 587.875 310.5 587.727 310.21C587.582 309.92 587.375 309.692 587.105 309.524C586.838 309.357 586.522 309.273 586.159 309.273C585.758 309.273 585.412 309.372 585.119 309.571C584.829 309.767 584.606 310.023 584.45 310.338C584.294 310.653 584.216 310.991 584.216 311.352V311.932C584.216 312.426 584.301 312.845 584.471 313.189C584.644 313.53 584.885 313.79 585.191 313.969C585.498 314.145 585.855 314.233 586.261 314.233C586.525 314.233 586.764 314.196 586.977 314.122C587.193 314.045 587.379 313.932 587.535 313.781C587.691 313.628 587.812 313.437 587.897 313.21L588.869 313.483C588.767 313.812 588.595 314.102 588.353 314.352C588.112 314.599 587.814 314.793 587.458 314.932C587.103 315.068 586.704 315.136 586.261 315.136ZM593.131 315.136C592.518 315.136 591.989 314.991 591.546 314.702C591.103 314.412 590.762 314.013 590.523 313.504C590.285 312.996 590.165 312.415 590.165 311.761C590.165 311.097 590.288 310.51 590.532 310.001C590.779 309.49 591.123 309.091 591.563 308.804C592.006 308.514 592.523 308.369 593.114 308.369C593.575 308.369 593.989 308.455 594.359 308.625C594.728 308.795 595.03 309.034 595.266 309.341C595.502 309.648 595.648 310.006 595.705 310.415H594.7C594.623 310.116 594.452 309.852 594.188 309.622C593.927 309.389 593.575 309.273 593.131 309.273C592.739 309.273 592.396 309.375 592.1 309.58C591.807 309.781 591.579 310.067 591.414 310.436C591.252 310.803 591.171 311.233 591.171 311.727C591.171 312.233 591.251 312.673 591.41 313.048C591.572 313.423 591.799 313.714 592.092 313.922C592.387 314.129 592.734 314.233 593.131 314.233C593.393 314.233 593.63 314.188 593.843 314.097C594.056 314.006 594.236 313.875 594.384 313.705C594.532 313.534 594.637 313.33 594.7 313.091H595.705C595.648 313.477 595.508 313.825 595.283 314.135C595.062 314.442 594.768 314.686 594.401 314.868C594.038 315.047 593.614 315.136 593.131 315.136Z" fill="#4B4B4B"/>
<g clip-path="url(#clip0_114_11622)">
<path d="M45 184.757C45 184.757 100.44 201.617 131.04 201.617C161.64 201.617 207 106.78 237.24 106.78C267.48 106.78 309.965 158.062 336.249 158.062C362.533 158.062 398.88 87.8125 431.64 87.8125C464.4 87.8125 492.48 136.987 524.88 127.855C557.28 118.722 613.8 51.985 621 51.985" stroke="#FF921B" stroke-width="3"/>
</g>
<defs>
<clipPath id="clip0_114_11622">
<rect width="576" height="281" fill="white" transform="translate(45)"/>
</clipPath>
</defs>
</svg>
