<svg width="109" height="32" viewBox="0 0 109 32" fill="none" xmlns="http://www.w3.org/2000/svg">
<path d="M103.066 0.0856157C103.01 0.0307468 102.935 0 102.857 0C102.778 0 102.703 0.0307468 102.647 0.0856157L97.5127 5.22191C97.2591 5.47492 97.0579 5.7755 96.9206 6.1064C96.7833 6.43729 96.7126 6.79201 96.7126 7.15026C96.7126 7.50851 96.7833 7.86325 96.9206 8.19414C97.0579 8.52504 97.2591 8.82559 97.5127 9.07861C97.54 9.10615 97.5725 9.12801 97.6082 9.14293C97.644 9.15785 97.6824 9.16554 97.7212 9.16554C97.76 9.16554 97.7983 9.15785 97.8341 9.14293C97.8699 9.12801 97.9024 9.10615 97.9297 9.07861L103.066 3.94232C103.577 3.43085 103.865 2.73721 103.865 2.01397C103.865 1.29072 103.577 0.597089 103.066 0.0856157Z" fill="#F0593C"/>
<path d="M108.202 5.24162C108.146 5.18675 108.071 5.15601 107.993 5.15601C107.915 5.15601 107.839 5.18675 107.783 5.24162L102.647 10.3779C102.394 10.631 102.193 10.9317 102.056 11.2625C101.918 11.5934 101.848 11.9481 101.848 12.3063C101.848 12.6644 101.918 13.0191 102.056 13.35C102.193 13.6809 102.394 13.9815 102.647 14.2346C102.674 14.2622 102.707 14.284 102.743 14.2989C102.779 14.3139 102.817 14.3215 102.856 14.3215C102.894 14.3215 102.933 14.3139 102.969 14.2989C103.004 14.284 103.037 14.2622 103.064 14.2346L108.2 9.09831C108.712 8.58707 109 7.89357 109 7.17032C109 6.44708 108.713 5.75333 108.202 5.24162Z" fill="#F0593C"/>
<path d="M107.461 4.69577C107.475 4.68211 107.486 4.66582 107.494 4.64784C107.501 4.62987 107.505 4.61058 107.505 4.59108C107.505 4.57159 107.501 4.55228 107.494 4.53431C107.486 4.51633 107.475 4.50003 107.461 4.48637C106.922 3.94738 106.191 3.64459 105.428 3.64459C104.666 3.64459 103.935 3.94738 103.395 4.48637L98.259 9.62269C98.2313 9.65051 98.2158 9.68814 98.2158 9.72737C98.2158 9.7666 98.2313 9.80423 98.259 9.83206C98.5258 10.0994 98.8427 10.3114 99.1915 10.4561C99.5404 10.6008 99.9144 10.6753 100.292 10.6753C100.67 10.6753 101.044 10.6008 101.393 10.4561C101.741 10.3114 102.058 10.0994 102.325 9.83206L107.461 4.69577Z" fill="#F0593C"/>
<path d="M5.09335 15.0778C5.38685 14.8988 5.82531 14.8129 6.41053 14.8129C7.01623 14.8073 7.61535 14.9388 8.163 15.1976C8.71065 15.4563 9.19265 15.8357 9.57285 16.3073L11.8869 13.9646C11.2768 13.1568 10.4636 12.525 9.52989 12.1338C8.5233 11.7252 7.44486 11.5232 6.35863 11.5396C5.36539 11.5149 4.37792 11.6978 3.4594 12.0765C2.68781 12.3976 2.02667 12.9369 1.557 13.6282C1.09968 14.3279 0.864503 15.1494 0.882307 15.9851C0.882307 16.8441 1.06127 17.5469 1.4192 18.0933C1.75098 18.6211 2.20847 19.0583 2.7507 19.3658C3.29168 19.6705 3.86649 19.9107 4.46339 20.0816L6.17609 20.5792C6.64017 20.7048 7.08772 20.885 7.50938 21.116C7.67215 21.2009 7.8078 21.3298 7.90083 21.488C7.99387 21.6462 8.04054 21.8274 8.03554 22.0109C8.03549 22.1743 7.9886 22.3344 7.90043 22.472C7.81225 22.6097 7.68649 22.7192 7.53802 22.7876C7.20693 22.9665 6.7291 23.065 6.1063 23.065C5.38302 23.073 4.66569 22.9335 3.99808 22.6551C3.34841 22.3787 2.77546 21.9488 2.32834 21.4024L0 23.7093C0.478721 24.2663 1.04149 24.7451 1.66796 25.1285C2.32638 25.5353 3.04175 25.8417 3.79049 26.0376C4.56969 26.2425 5.37219 26.3454 6.17788 26.3436C7.87685 26.3436 9.22327 25.9386 10.2171 25.1285C11.211 24.3183 11.7091 23.2207 11.7115 21.8355C11.7115 20.9765 11.5403 20.2737 11.1978 19.7273C10.8672 19.1917 10.4162 18.7407 9.88067 18.4101C9.34968 18.0804 8.77899 17.8194 8.18229 17.6334C7.58812 17.4544 7.01544 17.2754 6.46959 17.1215C6.01244 17.0009 5.57053 16.8286 5.15241 16.6079C5.00099 16.536 4.87352 16.4219 4.78527 16.2794C4.69703 16.1369 4.65176 15.972 4.65488 15.8044C4.65431 15.6547 4.69491 15.5077 4.77224 15.3796C4.84957 15.2514 4.96066 15.147 5.09335 15.0778Z" fill="#FEF9E9"/>
<path d="M24.5039 12.5595C23.443 11.9106 22.22 11.5755 20.9765 11.5931C20.0201 11.579 19.0749 11.8003 18.224 12.2374C17.7658 12.4792 17.344 12.7847 16.9713 13.1447V11.892H13.1289V31.979H16.9355V24.7989C17.3156 25.1675 17.7502 25.4754 18.224 25.7116C19.0804 26.1303 20.0234 26.3412 20.9765 26.3273C22.2157 26.3461 23.4344 26.0108 24.4896 25.3609C25.5272 24.7145 26.373 23.8025 26.9396 22.7193C27.5477 21.5612 27.8554 20.269 27.8345 18.9611C27.8561 17.6493 27.5543 16.3524 26.9557 15.1849C26.3933 14.1024 25.5455 13.1945 24.5039 12.5595ZM23.4301 20.919C23.1424 21.4767 22.7097 21.9466 22.1774 22.2791C21.6236 22.6189 20.9836 22.7916 20.334 22.7766C19.6709 22.7879 19.0174 22.6157 18.446 22.2791C17.9035 21.959 17.4677 21.4859 17.1932 20.919C16.9013 20.3013 16.7561 19.6245 16.769 18.9414C16.7534 18.2577 16.9091 17.5809 17.2218 16.9728C17.5117 16.4198 17.9443 15.9545 18.4746 15.6252C19.025 15.2899 19.6592 15.1174 20.3036 15.1277C20.9629 15.1107 21.6133 15.2834 22.1774 15.6252C22.7067 15.9558 23.139 16.4208 23.4301 16.9728C23.7429 17.5809 23.8985 18.2577 23.8829 18.9414C23.8935 19.6285 23.7349 20.3076 23.4212 20.919H23.4301Z" fill="#FEF9E9"/>
<path d="M39.4994 13.2324C39.101 12.8162 38.6359 12.4696 38.1231 12.2069C37.2903 11.7906 36.3697 11.5801 35.4387 11.5931C34.2039 11.5732 32.9894 11.9087 31.9399 12.5595C30.9127 13.2049 30.0782 14.1149 29.5239 15.1939C28.9472 16.3628 28.6473 17.6487 28.6473 18.9521C28.6473 20.2555 28.9472 21.5415 29.5239 22.7104C30.0787 23.789 30.9131 24.6989 31.9399 25.3448C32.9799 25.9932 34.1845 26.3287 35.41 26.3112C36.3581 26.3262 37.2961 26.1151 38.1464 25.6955C38.6547 25.4394 39.1154 25.098 39.5083 24.6862V26.0356H43.374V11.8973H39.5083L39.4994 13.2324ZM38.7388 21.6939C38.0754 22.4169 37.2068 22.7748 36.133 22.7677C35.4937 22.7776 34.8641 22.6107 34.3137 22.2854C33.7632 21.9602 33.3133 21.4891 33.0137 20.9243C32.6999 20.3082 32.5443 19.6237 32.5609 18.9324C32.5453 18.2487 32.7009 17.572 33.0137 16.9638C33.3113 16.392 33.7602 15.9129 34.3113 15.5784C34.8624 15.244 35.4947 15.0672 36.1393 15.0672C36.7839 15.0672 37.4162 15.244 37.9673 15.5784C38.5184 15.9129 38.9673 16.392 39.2649 16.9638C39.5847 17.5777 39.7458 18.2618 39.7338 18.9539C39.7716 19.962 39.4146 20.945 38.7388 21.6939Z" fill="#FEF9E9"/>
<path d="M51.6529 20.8563L48.4458 11.8866H44.2294L49.6181 24.8114L46.2213 31.9718H50.3196L52.8967 26.1447L59.2213 11.8866H55.0049L51.6529 20.8563Z" fill="#FEF9E9"/>
<path d="M63.9586 15.6556C64.5334 15.3287 65.1854 15.1619 65.8466 15.1724C66.4338 15.1653 67.0166 15.2748 67.5611 15.4945C68.0689 15.7034 68.5167 16.0356 68.864 16.4609L71.382 13.9411C70.7016 13.1777 69.8615 12.5734 68.9213 12.1711C67.9482 11.7629 66.9018 11.5583 65.8466 11.5698C64.4867 11.5488 63.1447 11.8818 61.9524 12.5362C60.8236 13.1594 59.8834 14.0749 59.2303 15.1867C58.5594 16.3359 58.2153 17.6466 58.2353 18.9772C58.2202 20.2896 58.5643 21.5812 59.2303 22.7122C59.8854 23.8256 60.8249 24.7447 61.9524 25.3752C63.0148 25.9533 64.1935 26.2856 65.4015 26.3476C66.6095 26.4095 67.816 26.1995 68.932 25.7331C69.8701 25.3197 70.7055 24.7043 71.3785 23.9309L68.9177 21.4433C68.5433 21.8615 68.0846 22.1957 67.5719 22.424C67.0254 22.6557 66.4365 22.7703 65.8431 22.7605C65.18 22.7705 64.527 22.5984 63.955 22.263C63.4064 21.9404 62.956 21.4745 62.6521 20.9154C62.3438 20.3075 62.1831 19.6355 62.1831 18.9539C62.1831 18.2723 62.3438 17.6003 62.6521 16.9924C62.9547 16.4339 63.4071 15.9709 63.9586 15.6556Z" fill="#FEF9E9"/>
<path d="M82.528 12.4718C81.4372 11.8553 80.2015 11.5415 78.9487 11.5627C77.6168 11.5435 76.3036 11.877 75.1421 12.5291C74.0279 13.1523 73.101 14.0625 72.4576 15.1652C71.812 16.3251 71.4743 17.631 71.4768 18.9585C71.4793 20.2859 71.8219 21.5906 72.4719 22.748C73.1313 23.8567 74.0771 24.7673 75.2101 25.3841C76.4273 26.0409 77.7931 26.3731 79.176 26.3487C80.2706 26.3601 81.3563 26.1514 82.3687 25.7349C83.3507 25.3229 84.225 24.6911 84.9243 23.888L82.6407 21.6044C82.2333 22.0961 81.7099 22.4786 81.1177 22.7175C80.4906 22.9623 79.8222 23.0838 79.1491 23.0755C78.4156 23.0912 77.69 22.92 77.0409 22.578C76.4389 22.2499 75.9532 21.7435 75.6504 21.1283C75.5234 20.8696 75.4233 20.5985 75.3515 20.3194L85.6796 20.2944C85.7518 20.0107 85.8003 19.7216 85.8245 19.4299C85.8442 19.1669 85.8549 18.9092 85.8549 18.655C85.8771 17.3803 85.5748 16.1209 84.9762 14.9952C84.4139 13.9405 83.5652 13.0658 82.528 12.4718ZM76.9353 15.2816C77.5418 14.9397 78.2294 14.7678 78.9254 14.784C79.5595 14.7622 80.1876 14.9138 80.7419 15.2225C81.2414 15.5298 81.6387 15.9782 81.8837 16.511C82.02 16.8025 82.1221 17.1088 82.1879 17.4238L75.3622 17.4434C75.4279 17.1883 75.5184 16.9401 75.6325 16.7025C75.9145 16.109 76.3684 15.6139 76.9353 15.2816Z" fill="#FEF9E9"/>
<path d="M96.5964 18.4152C96.065 18.0862 95.4944 17.8252 94.898 17.6385C94.3014 17.4536 93.7306 17.283 93.1853 17.1267C92.7276 17.006 92.2851 16.8337 91.8663 16.613C91.7152 16.5408 91.588 16.4267 91.4998 16.2842C91.4116 16.1418 91.3661 15.977 91.3688 15.8095C91.3672 15.6587 91.4075 15.5104 91.4853 15.3811C91.563 15.2519 91.6751 15.1468 91.8091 15.0775C92.1008 14.8986 92.541 14.8127 93.1262 14.8127C93.7319 14.8074 94.3309 14.9391 94.8785 15.1978C95.4261 15.4566 95.9081 15.8358 96.2886 16.307L98.6008 13.9644C97.9908 13.1565 97.1775 12.5248 96.2438 12.1335C95.2359 11.7224 94.1556 11.5185 93.0672 11.534C92.0739 11.5093 91.0865 11.6921 90.168 12.0709C89.3964 12.392 88.7352 12.9313 88.2656 13.6225C87.8088 14.3224 87.5742 15.144 87.5927 15.9795C87.5927 16.8386 87.768 17.5413 88.1188 18.0877C88.4507 18.6159 88.9089 19.0532 89.4521 19.3602C89.9928 19.6655 90.5677 19.9058 91.1648 20.076L92.8775 20.5735C93.341 20.6991 93.788 20.8794 94.209 21.1104C94.372 21.1952 94.5079 21.324 94.6012 21.4822C94.6945 21.6404 94.7416 21.8216 94.7369 22.0053C94.7365 22.1689 94.6893 22.329 94.6008 22.4666C94.5123 22.6042 94.3863 22.7136 94.2376 22.782C93.9065 22.9609 93.4287 23.0594 92.8059 23.0594C92.0826 23.0672 91.3653 22.9278 90.6977 22.6495C90.048 22.3731 89.4751 21.9432 89.028 21.3968L86.7139 23.709C87.1931 24.2656 87.7557 24.7444 88.3819 25.1282C89.0408 25.5353 89.7568 25.8418 90.5062 26.0373C91.2847 26.2425 92.0867 26.3453 92.8918 26.3434C94.5908 26.3434 95.9378 25.9383 96.9328 25.1282C97.9279 24.3181 98.4254 23.2204 98.4254 21.8353C98.4254 20.9762 98.2548 20.2735 97.9136 19.727C97.5818 19.1938 97.1309 18.7448 96.5964 18.4152Z" fill="#FEF9E9"/>
</svg>
