<svg width="364" height="284" viewBox="0 0 364 284" fill="none" xmlns="http://www.w3.org/2000/svg">
<path d="M302 120C302 186.274 248.274 240 182 240C115.726 240 62 186.274 62 120C62 53.7258 115.726 0 182 0C248.274 0 302 53.7258 302 120ZM110 120C110 159.764 142.235 192 182 192C221.764 192 254 159.764 254 120C254 80.2355 221.764 48 182 48C142.235 48 110 80.2355 110 120Z" fill="#DBD7CD"/>
<path d="M302 120C302 146.821 293.014 172.869 276.478 193.986C259.941 215.103 236.807 230.071 210.767 236.501C184.728 242.931 157.286 240.452 132.82 229.459C108.355 218.467 88.2775 199.596 75.7928 175.857C63.3081 152.119 59.1361 124.882 63.9427 98.495C68.7493 72.1079 82.2574 48.0918 102.311 30.2804C122.364 12.469 147.806 1.88916 174.576 0.229857C201.346 -1.42944 227.9 5.92742 250 21.1261L222.8 60.6756C209.54 51.5565 193.608 47.1423 177.546 48.1379C161.484 49.1335 146.218 55.4814 134.186 66.1682C122.154 76.8551 114.05 91.2647 111.166 107.097C108.282 122.929 110.785 139.271 118.276 153.514C125.766 167.757 137.813 179.08 152.492 185.676C167.171 192.271 183.637 193.758 199.26 189.9C214.884 186.043 228.765 177.062 238.687 164.392C248.609 151.722 254 136.093 254 120H302Z" fill="#A3B38A"/>
<path d="M302 120C302 143.734 294.962 166.935 281.776 186.668C268.591 206.402 249.849 221.783 227.922 230.866C205.995 239.948 181.867 242.324 158.589 237.694C135.311 233.064 113.929 221.635 97.1472 204.853C80.3649 188.071 68.936 166.689 64.3058 143.411C59.6755 120.133 62.0519 96.0051 71.1345 74.078C80.217 52.1509 95.5977 33.4094 115.332 20.2236C135.065 7.03788 158.266 -2.83022e-07 182 0V48C167.76 48 153.839 52.2227 141.999 60.1342C130.159 68.0456 120.93 79.2905 115.481 92.4468C110.031 105.603 108.605 120.08 111.383 134.047C114.162 148.013 121.019 160.842 131.088 170.912C141.158 180.981 153.987 187.838 167.953 190.617C181.92 193.395 196.397 191.969 209.553 186.519C222.709 181.07 233.954 171.841 241.866 160.001C249.777 148.161 254 134.24 254 120H302Z" fill="#588057"/>
<path d="M302 120C302 137.343 298.241 154.48 290.981 170.231C283.721 185.982 273.134 199.971 259.948 211.237C246.761 222.502 231.29 230.776 214.599 235.487C197.908 240.199 180.394 241.236 163.264 238.528C146.133 235.82 129.793 229.432 115.369 219.802C100.945 210.172 88.7803 197.53 79.7117 182.746C70.6432 167.963 64.8869 151.39 62.8393 134.168C60.7917 116.946 62.5014 99.4848 67.8507 82.9872L113.51 97.7924C110.301 107.691 109.275 118.168 110.504 128.501C111.732 138.834 115.186 148.778 120.627 157.648C126.068 166.518 133.367 174.103 142.022 179.881C150.676 185.659 160.48 189.492 170.758 191.117C181.037 192.742 191.545 192.119 201.559 189.292C211.574 186.465 220.857 181.501 228.769 174.742C236.68 167.983 243.033 159.589 247.389 150.139C251.744 140.688 254 130.406 254 120H302Z" fill="#334E41"/>
<path d="M302 120C302 140.418 296.79 160.498 286.864 178.34C276.937 196.183 262.622 211.197 245.274 221.963C227.925 232.729 208.116 238.89 187.722 239.864C167.327 240.837 147.021 236.591 128.726 227.526L150.036 184.516C161.013 189.954 173.196 192.502 185.433 191.918C197.67 191.334 209.555 187.637 219.964 181.178C230.373 174.718 238.962 165.71 244.918 155.004C250.874 144.299 254 132.251 254 120H302Z" fill="#334E41"/>
<circle cx="4.5" cy="274" r="3" fill="#334E41"/>
<path d="M25.9261 272H24.6932C24.6203 271.645 24.4927 271.334 24.3104 271.065C24.1314 270.797 23.9126 270.571 23.6541 270.389C23.3989 270.204 23.1155 270.064 22.804 269.972C22.4924 269.879 22.1676 269.832 21.8295 269.832C21.2131 269.832 20.6546 269.988 20.1541 270.3C19.657 270.611 19.2609 271.07 18.9659 271.677C18.6742 272.283 18.5284 273.027 18.5284 273.909C18.5284 274.791 18.6742 275.535 18.9659 276.141C19.2609 276.748 19.657 277.207 20.1541 277.518C20.6546 277.83 21.2131 277.986 21.8295 277.986C22.1676 277.986 22.4924 277.939 22.804 277.847C23.1155 277.754 23.3989 277.616 23.6541 277.434C23.9126 277.248 24.1314 277.021 24.3104 276.753C24.4927 276.481 24.6203 276.17 24.6932 275.818H25.9261C25.8333 276.339 25.6643 276.804 25.419 277.215C25.1738 277.626 24.8688 277.976 24.5043 278.264C24.1397 278.549 23.7304 278.766 23.2763 278.915C22.8255 279.065 22.3433 279.139 21.8295 279.139C20.9612 279.139 20.1889 278.927 19.5128 278.503C18.8366 278.079 18.3047 277.475 17.9169 276.693C17.5291 275.911 17.3352 274.983 17.3352 273.909C17.3352 272.835 17.5291 271.907 17.9169 271.125C18.3047 270.343 18.8366 269.74 19.5128 269.315C20.1889 268.891 20.9612 268.679 21.8295 268.679C22.3433 268.679 22.8255 268.754 23.2763 268.903C23.7304 269.052 24.1397 269.271 24.5043 269.559C24.8688 269.844 25.1738 270.192 25.419 270.603C25.6643 271.011 25.8333 271.476 25.9261 272ZM30.8281 279.159C30.1387 279.159 29.5338 278.995 29.0135 278.667C28.4964 278.339 28.0921 277.88 27.8004 277.29C27.512 276.7 27.3679 276.01 27.3679 275.222C27.3679 274.426 27.512 273.732 27.8004 273.138C28.0921 272.545 28.4964 272.085 29.0135 271.756C29.5338 271.428 30.1387 271.264 30.8281 271.264C31.5175 271.264 32.1207 271.428 32.6377 271.756C33.1581 272.085 33.5625 272.545 33.8508 273.138C34.1425 273.732 34.2883 274.426 34.2883 275.222C34.2883 276.01 34.1425 276.7 33.8508 277.29C33.5625 277.88 33.1581 278.339 32.6377 278.667C32.1207 278.995 31.5175 279.159 30.8281 279.159ZM30.8281 278.105C31.3518 278.105 31.7826 277.971 32.1207 277.702C32.4588 277.434 32.709 277.081 32.8714 276.643C33.0338 276.206 33.115 275.732 33.115 275.222C33.115 274.711 33.0338 274.236 32.8714 273.795C32.709 273.354 32.4588 272.998 32.1207 272.726C31.7826 272.454 31.3518 272.318 30.8281 272.318C30.3044 272.318 29.8735 272.454 29.5355 272.726C29.1974 272.998 28.9472 273.354 28.7848 273.795C28.6224 274.236 28.5412 274.711 28.5412 275.222C28.5412 275.732 28.6224 276.206 28.7848 276.643C28.9472 277.081 29.1974 277.434 29.5355 277.702C29.8735 277.971 30.3044 278.105 30.8281 278.105ZM36.0457 279V271.364H37.1792V272.557H37.2787C37.4378 272.149 37.6946 271.833 38.0493 271.607C38.4039 271.379 38.8298 271.264 39.327 271.264C39.8308 271.264 40.25 271.379 40.5848 271.607C40.9229 271.833 41.1864 272.149 41.3753 272.557H41.4548C41.6504 272.162 41.9437 271.849 42.3348 271.617C42.7259 271.382 43.1949 271.264 43.7417 271.264C44.4245 271.264 44.983 271.478 45.4172 271.906C45.8514 272.33 46.0685 272.991 46.0685 273.889V279H44.8952V273.889C44.8952 273.326 44.741 272.923 44.4328 272.681C44.1246 272.439 43.7616 272.318 43.344 272.318C42.8071 272.318 42.3911 272.481 42.0962 272.805C41.8012 273.127 41.6537 273.535 41.6537 274.028V279H40.4605V273.77C40.4605 273.336 40.3196 272.986 40.0379 272.721C39.7562 272.452 39.3933 272.318 38.9491 272.318C38.6442 272.318 38.3592 272.399 38.094 272.562C37.8322 272.724 37.6201 272.95 37.4577 273.238C37.2986 273.523 37.219 273.853 37.219 274.227V279H36.0457ZM48.1801 281.864V271.364H49.3136V272.577H49.4528C49.539 272.444 49.6583 272.275 49.8108 272.07C49.9666 271.861 50.1886 271.675 50.477 271.513C50.7686 271.347 51.1631 271.264 51.6602 271.264C52.3032 271.264 52.87 271.425 53.3605 271.746C53.851 272.068 54.2338 272.524 54.5089 273.114C54.784 273.704 54.9216 274.4 54.9216 275.202C54.9216 276.01 54.784 276.711 54.5089 277.305C54.2338 277.895 53.8527 278.352 53.3655 278.677C52.8782 278.998 52.3165 279.159 51.6801 279.159C51.1896 279.159 50.7968 279.078 50.5018 278.915C50.2068 278.75 49.9798 278.562 49.8207 278.354C49.6616 278.142 49.539 277.966 49.4528 277.827H49.3534V281.864H48.1801ZM49.3335 275.182C49.3335 275.759 49.418 276.267 49.5871 276.708C49.7561 277.146 50.003 277.489 50.3278 277.737C50.6526 277.982 51.0504 278.105 51.521 278.105C52.0115 278.105 52.4209 277.976 52.749 277.717C53.0804 277.455 53.329 277.104 53.4947 276.663C53.6638 276.219 53.7483 275.725 53.7483 275.182C53.7483 274.645 53.6654 274.161 53.4997 273.73C53.3373 273.296 53.0904 272.953 52.7589 272.701C52.4308 272.446 52.0182 272.318 51.521 272.318C51.0437 272.318 50.6427 272.439 50.3179 272.681C49.9931 272.92 49.7478 273.254 49.5821 273.685C49.4164 274.113 49.3335 274.612 49.3335 275.182ZM57.851 268.818V279H56.6777V268.818H57.851ZM63.1681 279.159C62.4323 279.159 61.7976 278.997 61.264 278.672C60.7337 278.344 60.3244 277.886 60.036 277.3C59.751 276.71 59.6085 276.024 59.6085 275.241C59.6085 274.459 59.751 273.77 60.036 273.173C60.3244 272.573 60.7254 272.106 61.2391 271.771C61.7562 271.433 62.3594 271.264 63.0488 271.264C63.4465 271.264 63.8393 271.33 64.2271 271.463C64.6148 271.596 64.9678 271.811 65.286 272.109C65.6042 272.404 65.8577 272.795 66.0467 273.283C66.2356 273.77 66.33 274.37 66.33 275.082V275.58H60.4437V274.565H65.1369C65.1369 274.134 65.0507 273.75 64.8783 273.412C64.7093 273.074 64.4674 272.807 64.1525 272.612C63.8409 272.416 63.473 272.318 63.0488 272.318C62.5815 272.318 62.1771 272.434 61.8357 272.666C61.4977 272.895 61.2375 273.193 61.0552 273.561C60.8729 273.929 60.7818 274.323 60.7818 274.744V275.42C60.7818 275.997 60.8812 276.486 61.08 276.887C61.2822 277.285 61.5623 277.588 61.9202 277.797C62.2782 278.002 62.6942 278.105 63.1681 278.105C63.4764 278.105 63.7548 278.062 64.0033 277.976C64.2552 277.886 64.4723 277.754 64.6546 277.578C64.8369 277.399 64.9778 277.177 65.0772 276.912L66.2107 277.23C66.0914 277.615 65.8909 277.953 65.6092 278.244C65.3274 278.533 64.9794 278.758 64.5651 278.92C64.1508 279.08 63.6852 279.159 63.1681 279.159ZM71.4023 271.364V272.358H67.4449V271.364H71.4023ZM68.5983 269.534H69.7716V276.812C69.7716 277.144 69.8196 277.393 69.9158 277.558C70.0152 277.721 70.1411 277.83 70.2936 277.886C70.4494 277.939 70.6134 277.966 70.7858 277.966C70.9151 277.966 71.0211 277.959 71.104 277.946C71.1868 277.929 71.2531 277.916 71.3028 277.906L71.5415 278.96C71.4619 278.99 71.3509 279.02 71.2084 279.05C71.0659 279.083 70.8852 279.099 70.6665 279.099C70.335 279.099 70.0102 279.028 69.692 278.886C69.3772 278.743 69.1153 278.526 68.9065 278.234C68.701 277.943 68.5983 277.575 68.5983 277.131V269.534ZM76.2533 279.159C75.5175 279.159 74.8828 278.997 74.3491 278.672C73.8188 278.344 73.4095 277.886 73.1212 277.3C72.8361 276.71 72.6936 276.024 72.6936 275.241C72.6936 274.459 72.8361 273.77 73.1212 273.173C73.4095 272.573 73.8106 272.106 74.3243 271.771C74.8413 271.433 75.4445 271.264 76.1339 271.264C76.5317 271.264 76.9244 271.33 77.3122 271.463C77.7 271.596 78.053 271.811 78.3712 272.109C78.6893 272.404 78.9429 272.795 79.1318 273.283C79.3207 273.77 79.4152 274.37 79.4152 275.082V275.58H73.5288V274.565H78.222C78.222 274.134 78.1358 273.75 77.9635 273.412C77.7945 273.074 77.5525 272.807 77.2376 272.612C76.9261 272.416 76.5582 272.318 76.1339 272.318C75.6666 272.318 75.2623 272.434 74.9209 272.666C74.5828 272.895 74.3226 273.193 74.1403 273.561C73.958 273.929 73.8669 274.323 73.8669 274.744V275.42C73.8669 275.997 73.9663 276.486 74.1652 276.887C74.3674 277.285 74.6474 277.588 75.0054 277.797C75.3633 278.002 75.7793 278.105 76.2533 278.105C76.5615 278.105 76.8399 278.062 77.0885 277.976C77.3404 277.886 77.5575 277.754 77.7398 277.578C77.9221 277.399 78.0629 277.177 78.1624 276.912L79.2959 277.23C79.1766 277.615 78.976 277.953 78.6943 278.244C78.4126 278.533 78.0646 278.758 77.6503 278.92C77.236 279.08 76.7703 279.159 76.2533 279.159ZM84.0499 279.159C83.4136 279.159 82.8518 278.998 82.3645 278.677C81.8773 278.352 81.4962 277.895 81.2211 277.305C80.946 276.711 80.8084 276.01 80.8084 275.202C80.8084 274.4 80.946 273.704 81.2211 273.114C81.4962 272.524 81.879 272.068 82.3695 271.746C82.86 271.425 83.4268 271.264 84.0698 271.264C84.567 271.264 84.9597 271.347 85.2481 271.513C85.5397 271.675 85.7618 271.861 85.9143 272.07C86.07 272.275 86.191 272.444 86.2772 272.577H86.3766V268.818H87.5499V279H86.4164V277.827H86.2772C86.191 277.966 86.0684 278.142 85.9093 278.354C85.7502 278.562 85.5232 278.75 85.2282 278.915C84.9332 279.078 84.5404 279.159 84.0499 279.159ZM84.209 278.105C84.6797 278.105 85.0774 277.982 85.4022 277.737C85.727 277.489 85.9739 277.146 86.143 276.708C86.312 276.267 86.3965 275.759 86.3965 275.182C86.3965 274.612 86.3136 274.113 86.1479 273.685C85.9822 273.254 85.7369 272.92 85.4121 272.681C85.0873 272.439 84.6863 272.318 84.209 272.318C83.7118 272.318 83.2975 272.446 82.9661 272.701C82.638 272.953 82.3911 273.296 82.2253 273.73C82.0629 274.161 81.9817 274.645 81.9817 275.182C81.9817 275.725 82.0646 276.219 82.2303 276.663C82.3993 277.104 82.6479 277.455 82.9761 277.717C83.3075 277.976 83.7185 278.105 84.209 278.105Z" fill="#4B4B4B"/>
<circle cx="109.5" cy="274" r="3" fill="#588057"/>
<path d="M122.733 279V268.818H126.173C126.972 268.818 127.625 268.962 128.132 269.251C128.643 269.536 129.02 269.922 129.266 270.409C129.511 270.896 129.634 271.44 129.634 272.04C129.634 272.64 129.511 273.185 129.266 273.675C129.024 274.166 128.649 274.557 128.142 274.849C127.635 275.137 126.985 275.281 126.193 275.281H123.727V274.188H126.153C126.7 274.188 127.139 274.093 127.471 273.904C127.802 273.715 128.043 273.46 128.192 273.138C128.344 272.814 128.42 272.447 128.42 272.04C128.42 271.632 128.344 271.268 128.192 270.946C128.043 270.625 127.801 270.373 127.466 270.19C127.131 270.005 126.687 269.912 126.134 269.912H123.966V279H122.733ZM131.427 279V271.364H132.561V272.517H132.64C132.779 272.139 133.031 271.833 133.396 271.597C133.76 271.362 134.171 271.244 134.629 271.244C134.715 271.244 134.823 271.246 134.952 271.249C135.081 271.253 135.179 271.258 135.245 271.264V272.457C135.205 272.447 135.114 272.433 134.972 272.413C134.833 272.389 134.685 272.378 134.529 272.378C134.158 272.378 133.827 272.456 133.535 272.612C133.247 272.764 133.018 272.976 132.849 273.248C132.683 273.516 132.6 273.823 132.6 274.168V279H131.427ZM139.472 279.159C138.783 279.159 138.178 278.995 137.658 278.667C137.141 278.339 136.736 277.88 136.445 277.29C136.156 276.7 136.012 276.01 136.012 275.222C136.012 274.426 136.156 273.732 136.445 273.138C136.736 272.545 137.141 272.085 137.658 271.756C138.178 271.428 138.783 271.264 139.472 271.264C140.162 271.264 140.765 271.428 141.282 271.756C141.802 272.085 142.207 272.545 142.495 273.138C142.787 273.732 142.932 274.426 142.932 275.222C142.932 276.01 142.787 276.7 142.495 277.29C142.207 277.88 141.802 278.339 141.282 278.667C140.765 278.995 140.162 279.159 139.472 279.159ZM139.472 278.105C139.996 278.105 140.427 277.971 140.765 277.702C141.103 277.434 141.353 277.081 141.516 276.643C141.678 276.206 141.759 275.732 141.759 275.222C141.759 274.711 141.678 274.236 141.516 273.795C141.353 273.354 141.103 272.998 140.765 272.726C140.427 272.454 139.996 272.318 139.472 272.318C138.949 272.318 138.518 272.454 138.18 272.726C137.842 272.998 137.591 273.354 137.429 273.795C137.266 274.236 137.185 274.711 137.185 275.222C137.185 275.732 137.266 276.206 137.429 276.643C137.591 277.081 137.842 277.434 138.18 277.702C138.518 277.971 138.949 278.105 139.472 278.105ZM147.792 279.159C147.076 279.159 146.46 278.99 145.943 278.652C145.426 278.314 145.028 277.848 144.75 277.255C144.471 276.662 144.332 275.984 144.332 275.222C144.332 274.446 144.474 273.762 144.759 273.168C145.048 272.572 145.449 272.106 145.963 271.771C146.48 271.433 147.083 271.264 147.772 271.264C148.309 271.264 148.793 271.364 149.224 271.562C149.655 271.761 150.008 272.04 150.283 272.398C150.558 272.756 150.729 273.173 150.795 273.651H149.622C149.532 273.303 149.333 272.994 149.025 272.726C148.72 272.454 148.309 272.318 147.792 272.318C147.335 272.318 146.934 272.437 146.589 272.676C146.248 272.911 145.981 273.245 145.789 273.675C145.6 274.103 145.505 274.605 145.505 275.182C145.505 275.772 145.598 276.286 145.784 276.723C145.973 277.161 146.238 277.5 146.579 277.742C146.924 277.984 147.328 278.105 147.792 278.105C148.097 278.105 148.374 278.052 148.622 277.946C148.871 277.84 149.081 277.688 149.254 277.489C149.426 277.29 149.549 277.051 149.622 276.773H150.795C150.729 277.223 150.565 277.629 150.303 277.991C150.044 278.349 149.701 278.634 149.274 278.846C148.849 279.055 148.356 279.159 147.792 279.159ZM155.678 279.159C154.942 279.159 154.308 278.997 153.774 278.672C153.244 278.344 152.835 277.886 152.546 277.3C152.261 276.71 152.119 276.024 152.119 275.241C152.119 274.459 152.261 273.77 152.546 273.173C152.835 272.573 153.236 272.106 153.749 271.771C154.266 271.433 154.87 271.264 155.559 271.264C155.957 271.264 156.349 271.33 156.737 271.463C157.125 271.596 157.478 271.811 157.796 272.109C158.114 272.404 158.368 272.795 158.557 273.283C158.746 273.77 158.84 274.37 158.84 275.082V275.58H152.954V274.565H157.647C157.647 274.134 157.561 273.75 157.389 273.412C157.219 273.074 156.978 272.807 156.663 272.612C156.351 272.416 155.983 272.318 155.559 272.318C155.092 272.318 154.687 272.434 154.346 272.666C154.008 272.895 153.748 273.193 153.565 273.561C153.383 273.929 153.292 274.323 153.292 274.744V275.42C153.292 275.997 153.391 276.486 153.59 276.887C153.792 277.285 154.072 277.588 154.43 277.797C154.788 278.002 155.204 278.105 155.678 278.105C155.987 278.105 156.265 278.062 156.514 277.976C156.765 277.886 156.982 277.754 157.165 277.578C157.347 277.399 157.488 277.177 157.587 276.912L158.721 277.23C158.602 277.615 158.401 277.953 158.119 278.244C157.838 278.533 157.49 278.758 157.075 278.92C156.661 279.08 156.195 279.159 155.678 279.159ZM166.001 273.074L164.947 273.372C164.88 273.196 164.782 273.026 164.653 272.86C164.527 272.691 164.355 272.552 164.136 272.442C163.917 272.333 163.637 272.278 163.296 272.278C162.829 272.278 162.439 272.386 162.128 272.602C161.819 272.814 161.665 273.084 161.665 273.412C161.665 273.704 161.771 273.934 161.983 274.103C162.196 274.272 162.527 274.413 162.978 274.526L164.111 274.804C164.794 274.97 165.303 275.223 165.638 275.565C165.972 275.903 166.14 276.339 166.14 276.872C166.14 277.31 166.014 277.701 165.762 278.045C165.513 278.39 165.165 278.662 164.718 278.861C164.27 279.06 163.75 279.159 163.157 279.159C162.378 279.159 161.733 278.99 161.223 278.652C160.712 278.314 160.389 277.82 160.253 277.17L161.367 276.892C161.473 277.303 161.674 277.611 161.969 277.817C162.267 278.022 162.656 278.125 163.137 278.125C163.684 278.125 164.118 278.009 164.439 277.777C164.764 277.542 164.927 277.26 164.927 276.932C164.927 276.667 164.834 276.445 164.648 276.266C164.463 276.083 164.178 275.947 163.793 275.858L162.52 275.56C161.821 275.394 161.307 275.137 160.979 274.789C160.654 274.438 160.492 273.999 160.492 273.472C160.492 273.041 160.613 272.66 160.855 272.328C161.1 271.997 161.433 271.737 161.854 271.548C162.278 271.359 162.759 271.264 163.296 271.264C164.052 271.264 164.645 271.43 165.076 271.761C165.51 272.093 165.818 272.53 166.001 273.074ZM173.281 273.074L172.227 273.372C172.161 273.196 172.063 273.026 171.934 272.86C171.808 272.691 171.636 272.552 171.417 272.442C171.198 272.333 170.918 272.278 170.577 272.278C170.109 272.278 169.72 272.386 169.408 272.602C169.1 272.814 168.946 273.084 168.946 273.412C168.946 273.704 169.052 273.934 169.264 274.103C169.476 274.272 169.808 274.413 170.259 274.526L171.392 274.804C172.075 274.97 172.584 275.223 172.918 275.565C173.253 275.903 173.421 276.339 173.421 276.872C173.421 277.31 173.295 277.701 173.043 278.045C172.794 278.39 172.446 278.662 171.999 278.861C171.551 279.06 171.031 279.159 170.438 279.159C169.659 279.159 169.014 278.99 168.504 278.652C167.993 278.314 167.67 277.82 167.534 277.17L168.648 276.892C168.754 277.303 168.954 277.611 169.249 277.817C169.548 278.022 169.937 278.125 170.418 278.125C170.965 278.125 171.399 278.009 171.72 277.777C172.045 277.542 172.207 277.26 172.207 276.932C172.207 276.667 172.115 276.445 171.929 276.266C171.743 276.083 171.458 275.947 171.074 275.858L169.801 275.56C169.102 275.394 168.588 275.137 168.26 274.789C167.935 274.438 167.773 273.999 167.773 273.472C167.773 273.041 167.894 272.66 168.136 272.328C168.381 271.997 168.714 271.737 169.135 271.548C169.559 271.359 170.04 271.264 170.577 271.264C171.332 271.264 171.926 271.43 172.357 271.761C172.791 272.093 173.099 272.53 173.281 273.074ZM175.153 279V271.364H176.326V279H175.153ZM175.75 270.091C175.521 270.091 175.324 270.013 175.158 269.857C174.996 269.701 174.914 269.514 174.914 269.295C174.914 269.077 174.996 268.889 175.158 268.734C175.324 268.578 175.521 268.5 175.75 268.5C175.978 268.5 176.174 268.578 176.336 268.734C176.502 268.889 176.585 269.077 176.585 269.295C176.585 269.514 176.502 269.701 176.336 269.857C176.174 270.013 175.978 270.091 175.75 270.091ZM179.615 274.406V279H178.442V271.364H179.575V272.557H179.675C179.854 272.169 180.125 271.857 180.49 271.622C180.855 271.384 181.325 271.264 181.902 271.264C182.419 271.264 182.871 271.37 183.259 271.582C183.647 271.791 183.949 272.109 184.164 272.537C184.38 272.961 184.487 273.498 184.487 274.148V279H183.314V274.227C183.314 273.627 183.158 273.16 182.847 272.825C182.535 272.487 182.108 272.318 181.564 272.318C181.189 272.318 180.855 272.399 180.56 272.562C180.268 272.724 180.038 272.961 179.869 273.273C179.7 273.584 179.615 273.962 179.615 274.406ZM189.68 282.023C189.113 282.023 188.626 281.95 188.218 281.804C187.811 281.661 187.471 281.473 187.199 281.237C186.931 281.005 186.717 280.757 186.558 280.491L187.493 279.835C187.599 279.974 187.733 280.134 187.895 280.312C188.058 280.495 188.28 280.652 188.561 280.785C188.846 280.921 189.219 280.989 189.68 280.989C190.297 280.989 190.805 280.839 191.206 280.541C191.607 280.243 191.808 279.776 191.808 279.139V277.588H191.708C191.622 277.727 191.5 277.9 191.341 278.105C191.185 278.307 190.959 278.488 190.664 278.647C190.373 278.803 189.978 278.881 189.481 278.881C188.865 278.881 188.311 278.735 187.821 278.443C187.333 278.152 186.947 277.727 186.662 277.17C186.381 276.614 186.24 275.937 186.24 275.142C186.24 274.36 186.377 273.679 186.652 273.099C186.927 272.515 187.31 272.065 187.801 271.746C188.291 271.425 188.858 271.264 189.501 271.264C189.998 271.264 190.393 271.347 190.684 271.513C190.979 271.675 191.205 271.861 191.36 272.07C191.52 272.275 191.642 272.444 191.728 272.577H191.848V271.364H192.981V279.219C192.981 279.875 192.832 280.409 192.534 280.82C192.239 281.234 191.841 281.537 191.341 281.729C190.843 281.925 190.29 282.023 189.68 282.023ZM189.64 277.827C190.111 277.827 190.509 277.719 190.833 277.504C191.158 277.288 191.405 276.978 191.574 276.574C191.743 276.17 191.828 275.686 191.828 275.122C191.828 274.572 191.745 274.086 191.579 273.665C191.413 273.245 191.168 272.915 190.843 272.676C190.519 272.437 190.118 272.318 189.64 272.318C189.143 272.318 188.729 272.444 188.397 272.696C188.069 272.948 187.822 273.286 187.657 273.71C187.494 274.134 187.413 274.605 187.413 275.122C187.413 275.652 187.496 276.121 187.662 276.529C187.831 276.933 188.079 277.252 188.407 277.484C188.739 277.712 189.15 277.827 189.64 277.827Z" fill="#4B4B4B"/>
<circle cx="214.5" cy="274" r="3" fill="#A3B38A"/>
<path d="M230.875 279H227.733V268.818H231.014C232.002 268.818 232.847 269.022 233.55 269.43C234.252 269.834 234.791 270.416 235.165 271.175C235.54 271.93 235.727 272.835 235.727 273.889C235.727 274.95 235.538 275.863 235.161 276.629C234.783 277.391 234.232 277.978 233.51 278.388C232.787 278.796 231.909 279 230.875 279ZM228.966 277.906H230.795C231.637 277.906 232.335 277.744 232.888 277.419C233.442 277.094 233.855 276.632 234.126 276.032C234.398 275.432 234.534 274.718 234.534 273.889C234.534 273.067 234.4 272.36 234.131 271.766C233.863 271.17 233.462 270.712 232.928 270.394C232.395 270.073 231.73 269.912 230.935 269.912H228.966V277.906ZM237.603 279V271.364H238.776V279H237.603ZM238.199 270.091C237.971 270.091 237.773 270.013 237.608 269.857C237.445 269.701 237.364 269.514 237.364 269.295C237.364 269.077 237.445 268.889 237.608 268.734C237.773 268.578 237.971 268.5 238.199 268.5C238.428 268.5 238.624 268.578 238.786 268.734C238.952 268.889 239.035 269.077 239.035 269.295C239.035 269.514 238.952 269.701 238.786 269.857C238.624 270.013 238.428 270.091 238.199 270.091ZM246.301 273.074L245.247 273.372C245.18 273.196 245.082 273.026 244.953 272.86C244.827 272.691 244.655 272.552 244.436 272.442C244.217 272.333 243.937 272.278 243.596 272.278C243.129 272.278 242.739 272.386 242.428 272.602C242.119 272.814 241.965 273.084 241.965 273.412C241.965 273.704 242.071 273.934 242.283 274.103C242.496 274.272 242.827 274.413 243.278 274.526L244.411 274.804C245.094 274.97 245.603 275.223 245.938 275.565C246.272 275.903 246.44 276.339 246.44 276.872C246.44 277.31 246.314 277.701 246.062 278.045C245.813 278.39 245.465 278.662 245.018 278.861C244.57 279.06 244.05 279.159 243.457 279.159C242.678 279.159 242.033 278.99 241.523 278.652C241.012 278.314 240.689 277.82 240.553 277.17L241.667 276.892C241.773 277.303 241.974 277.611 242.269 277.817C242.567 278.022 242.956 278.125 243.437 278.125C243.984 278.125 244.418 278.009 244.739 277.777C245.064 277.542 245.227 277.26 245.227 276.932C245.227 276.667 245.134 276.445 244.948 276.266C244.763 276.083 244.478 275.947 244.093 275.858L242.82 275.56C242.121 275.394 241.607 275.137 241.279 274.789C240.954 274.438 240.792 273.999 240.792 273.472C240.792 273.041 240.913 272.66 241.155 272.328C241.4 271.997 241.733 271.737 242.154 271.548C242.578 271.359 243.059 271.264 243.596 271.264C244.352 271.264 244.945 271.43 245.376 271.761C245.81 272.093 246.118 272.53 246.301 273.074ZM248.172 281.864V271.364H249.306V272.577H249.445C249.531 272.444 249.651 272.275 249.803 272.07C249.959 271.861 250.181 271.675 250.469 271.513C250.761 271.347 251.155 271.264 251.652 271.264C252.295 271.264 252.862 271.425 253.353 271.746C253.843 272.068 254.226 272.524 254.501 273.114C254.776 273.704 254.914 274.4 254.914 275.202C254.914 276.01 254.776 276.711 254.501 277.305C254.226 277.895 253.845 278.352 253.358 278.677C252.87 278.998 252.309 279.159 251.672 279.159C251.182 279.159 250.789 279.078 250.494 278.915C250.199 278.75 249.972 278.562 249.813 278.354C249.654 278.142 249.531 277.966 249.445 277.827H249.346V281.864H248.172ZM249.326 275.182C249.326 275.759 249.41 276.267 249.579 276.708C249.748 277.146 249.995 277.489 250.32 277.737C250.645 277.982 251.043 278.105 251.513 278.105C252.004 278.105 252.413 277.976 252.741 277.717C253.073 277.455 253.321 277.104 253.487 276.663C253.656 276.219 253.74 275.725 253.74 275.182C253.74 274.645 253.658 274.161 253.492 273.73C253.329 273.296 253.083 272.953 252.751 272.701C252.423 272.446 252.01 272.318 251.513 272.318C251.036 272.318 250.635 272.439 250.31 272.681C249.985 272.92 249.74 273.254 249.574 273.685C249.409 274.113 249.326 274.612 249.326 275.182ZM258.917 279.179C258.433 279.179 257.994 279.088 257.6 278.906C257.205 278.72 256.892 278.453 256.66 278.105C256.428 277.754 256.312 277.33 256.312 276.832C256.312 276.395 256.398 276.04 256.571 275.768C256.743 275.493 256.973 275.278 257.262 275.122C257.55 274.966 257.868 274.85 258.216 274.774C258.567 274.695 258.92 274.632 259.275 274.585C259.739 274.526 260.115 274.481 260.404 274.451C260.695 274.418 260.907 274.363 261.04 274.287C261.176 274.211 261.244 274.078 261.244 273.889V273.849C261.244 273.359 261.11 272.978 260.841 272.706C260.576 272.434 260.173 272.298 259.633 272.298C259.073 272.298 258.634 272.421 258.316 272.666C257.997 272.911 257.774 273.173 257.644 273.452L256.531 273.054C256.73 272.59 256.995 272.229 257.326 271.97C257.661 271.708 258.026 271.526 258.42 271.423C258.818 271.317 259.209 271.264 259.593 271.264C259.838 271.264 260.12 271.294 260.438 271.354C260.76 271.41 261.07 271.528 261.368 271.707C261.67 271.886 261.92 272.156 262.119 272.517C262.318 272.878 262.417 273.362 262.417 273.969V279H261.244V277.966H261.184C261.105 278.132 260.972 278.309 260.786 278.498C260.601 278.687 260.354 278.848 260.046 278.98C259.737 279.113 259.361 279.179 258.917 279.179ZM259.096 278.125C259.56 278.125 259.951 278.034 260.269 277.852C260.591 277.669 260.833 277.434 260.995 277.146C261.161 276.857 261.244 276.554 261.244 276.236V275.162C261.194 275.222 261.085 275.276 260.916 275.326C260.75 275.372 260.558 275.414 260.339 275.45C260.124 275.483 259.913 275.513 259.708 275.54C259.505 275.563 259.341 275.583 259.215 275.599C258.91 275.639 258.625 275.704 258.36 275.793C258.098 275.879 257.886 276.01 257.724 276.186C257.565 276.358 257.485 276.594 257.485 276.892C257.485 277.3 257.636 277.608 257.938 277.817C258.243 278.022 258.629 278.125 259.096 278.125ZM267.846 271.364V272.358H263.889V271.364H267.846ZM265.042 269.534H266.215V276.812C266.215 277.144 266.263 277.393 266.36 277.558C266.459 277.721 266.585 277.83 266.737 277.886C266.893 277.939 267.057 277.966 267.23 277.966C267.359 277.966 267.465 277.959 267.548 277.946C267.631 277.929 267.697 277.916 267.747 277.906L267.985 278.96C267.906 278.99 267.795 279.02 267.652 279.05C267.51 279.083 267.329 279.099 267.11 279.099C266.779 279.099 266.454 279.028 266.136 278.886C265.821 278.743 265.559 278.526 265.35 278.234C265.145 277.943 265.042 277.575 265.042 277.131V269.534ZM272.598 279.159C271.882 279.159 271.265 278.99 270.748 278.652C270.231 278.314 269.833 277.848 269.555 277.255C269.277 276.662 269.137 275.984 269.137 275.222C269.137 274.446 269.28 273.762 269.565 273.168C269.853 272.572 270.254 272.106 270.768 271.771C271.285 271.433 271.888 271.264 272.578 271.264C273.115 271.264 273.599 271.364 274.029 271.562C274.46 271.761 274.813 272.04 275.088 272.398C275.363 272.756 275.534 273.173 275.6 273.651H274.427C274.338 273.303 274.139 272.994 273.831 272.726C273.526 272.454 273.115 272.318 272.598 272.318C272.14 272.318 271.739 272.437 271.394 272.676C271.053 272.911 270.786 273.245 270.594 273.675C270.405 274.103 270.311 274.605 270.311 275.182C270.311 275.772 270.403 276.286 270.589 276.723C270.778 277.161 271.043 277.5 271.385 277.742C271.729 277.984 272.134 278.105 272.598 278.105C272.903 278.105 273.179 278.052 273.428 277.946C273.676 277.84 273.887 277.688 274.059 277.489C274.232 277.29 274.354 277.051 274.427 276.773H275.6C275.534 277.223 275.37 277.629 275.108 277.991C274.85 278.349 274.507 278.634 274.079 278.846C273.655 279.055 273.161 279.159 272.598 279.159ZM278.455 274.406V279H277.282V268.818H278.455V272.557H278.555C278.734 272.162 279.002 271.849 279.36 271.617C279.721 271.382 280.202 271.264 280.802 271.264C281.322 271.264 281.778 271.369 282.169 271.577C282.56 271.783 282.863 272.099 283.079 272.527C283.298 272.951 283.407 273.491 283.407 274.148V279H282.234V274.227C282.234 273.621 282.076 273.152 281.761 272.82C281.45 272.486 281.017 272.318 280.464 272.318C280.079 272.318 279.735 272.399 279.43 272.562C279.128 272.724 278.89 272.961 278.714 273.273C278.541 273.584 278.455 273.962 278.455 274.406ZM288.722 279.159C287.986 279.159 287.351 278.997 286.817 278.672C286.287 278.344 285.878 277.886 285.59 277.3C285.304 276.71 285.162 276.024 285.162 275.241C285.162 274.459 285.304 273.77 285.59 273.173C285.878 272.573 286.279 272.106 286.793 271.771C287.31 271.433 287.913 271.264 288.602 271.264C289 271.264 289.393 271.33 289.781 271.463C290.168 271.596 290.521 271.811 290.84 272.109C291.158 272.404 291.411 272.795 291.6 273.283C291.789 273.77 291.884 274.37 291.884 275.082V275.58H285.997V274.565H290.69C290.69 274.134 290.604 273.75 290.432 273.412C290.263 273.074 290.021 272.807 289.706 272.612C289.394 272.416 289.027 272.318 288.602 272.318C288.135 272.318 287.731 272.434 287.389 272.666C287.051 272.895 286.791 273.193 286.609 273.561C286.426 273.929 286.335 274.323 286.335 274.744V275.42C286.335 275.997 286.435 276.486 286.634 276.887C286.836 277.285 287.116 277.588 287.474 277.797C287.832 278.002 288.248 278.105 288.722 278.105C289.03 278.105 289.308 278.062 289.557 277.976C289.809 277.886 290.026 277.754 290.208 277.578C290.39 277.399 290.531 277.177 290.631 276.912L291.764 277.23C291.645 277.615 291.444 277.953 291.163 278.244C290.881 278.533 290.533 278.758 290.119 278.92C289.704 279.08 289.239 279.159 288.722 279.159ZM296.518 279.159C295.882 279.159 295.32 278.998 294.833 278.677C294.346 278.352 293.965 277.895 293.689 277.305C293.414 276.711 293.277 276.01 293.277 275.202C293.277 274.4 293.414 273.704 293.689 273.114C293.965 272.524 294.347 272.068 294.838 271.746C295.328 271.425 295.895 271.264 296.538 271.264C297.035 271.264 297.428 271.347 297.716 271.513C298.008 271.675 298.23 271.861 298.383 272.07C298.538 272.275 298.659 272.444 298.746 272.577H298.845V268.818H300.018V279H298.885V277.827H298.746C298.659 277.966 298.537 278.142 298.378 278.354C298.219 278.562 297.992 278.75 297.697 278.915C297.402 279.078 297.009 279.159 296.518 279.159ZM296.677 278.105C297.148 278.105 297.546 277.982 297.871 277.737C298.195 277.489 298.442 277.146 298.611 276.708C298.78 276.267 298.865 275.759 298.865 275.182C298.865 274.612 298.782 274.113 298.616 273.685C298.451 273.254 298.205 272.92 297.88 272.681C297.556 272.439 297.155 272.318 296.677 272.318C296.18 272.318 295.766 272.446 295.434 272.701C295.106 272.953 294.859 273.296 294.694 273.73C294.531 274.161 294.45 274.645 294.45 275.182C294.45 275.725 294.533 276.219 294.699 276.663C294.868 277.104 295.116 277.455 295.444 277.717C295.776 277.976 296.187 278.105 296.677 278.105Z" fill="#4B4B4B"/>
<circle cx="321.5" cy="274" r="3" fill="#DBD7CD"/>
<path d="M342.807 268.818V279H341.614L336.065 271.006H335.966V279H334.733V268.818H335.926L341.494 276.832H341.594V268.818H342.807ZM348.283 279.159C347.547 279.159 346.912 278.997 346.379 278.672C345.849 278.344 345.439 277.886 345.151 277.3C344.866 276.71 344.723 276.024 344.723 275.241C344.723 274.459 344.866 273.77 345.151 273.173C345.439 272.573 345.84 272.106 346.354 271.771C346.871 271.433 347.474 271.264 348.164 271.264C348.561 271.264 348.954 271.33 349.342 271.463C349.73 271.596 350.083 271.811 350.401 272.109C350.719 272.404 350.973 272.795 351.162 273.283C351.35 273.77 351.445 274.37 351.445 275.082V275.58H345.559V274.565H350.252C350.252 274.134 350.166 273.75 349.993 273.412C349.824 273.074 349.582 272.807 349.267 272.612C348.956 272.416 348.588 272.318 348.164 272.318C347.696 272.318 347.292 272.434 346.951 272.666C346.613 272.895 346.352 273.193 346.17 273.561C345.988 273.929 345.897 274.323 345.897 274.744V275.42C345.897 275.997 345.996 276.486 346.195 276.887C346.397 277.285 346.677 277.588 347.035 277.797C347.393 278.002 347.809 278.105 348.283 278.105C348.591 278.105 348.87 278.062 349.118 277.976C349.37 277.886 349.587 277.754 349.769 277.578C349.952 277.399 350.093 277.177 350.192 276.912L351.326 277.23C351.206 277.615 351.006 277.953 350.724 278.244C350.442 278.533 350.094 278.758 349.68 278.92C349.266 279.08 348.8 279.159 348.283 279.159ZM354.926 279L352.6 271.364H353.832L355.483 277.21H355.563L357.193 271.364H358.446L360.057 277.19H360.136L361.787 271.364H363.02L360.693 279H359.54L357.869 273.134H357.75L356.08 279H354.926Z" fill="#4B4B4B"/>
</svg>
